%TF.GenerationSoftware,KiCad,Pcbnew,7.0.11-2.fc39*%
%TF.CreationDate,2024-11-23T03:24:36+03:00*%
%TF.ProjectId,logic_tester,6c6f6769-635f-4746-9573-7465722e6b69,1.0*%
%TF.SameCoordinates,PX47868c0PY55d4a80*%
%TF.FileFunction,Legend,Top*%
%TF.FilePolarity,Positive*%
%FSLAX46Y46*%
G04 Gerber Fmt 4.6, Leading zero omitted, Abs format (unit mm)*
G04 Created by KiCad (PCBNEW 7.0.11-2.fc39) date 2024-11-23 03:24:36*
%MOMM*%
%LPD*%
G01*
G04 APERTURE LIST*
%ADD10C,0.300000*%
%ADD11C,0.200000*%
%ADD12C,0.150000*%
%ADD13C,0.120000*%
%ADD14C,0.100000*%
G04 APERTURE END LIST*
D10*
X1442857Y-11589542D02*
X1557143Y-11589542D01*
X1557143Y-11589542D02*
X1671429Y-11646685D01*
X1671429Y-11646685D02*
X1728572Y-11703828D01*
X1728572Y-11703828D02*
X1785714Y-11818114D01*
X1785714Y-11818114D02*
X1842857Y-12046685D01*
X1842857Y-12046685D02*
X1842857Y-12332400D01*
X1842857Y-12332400D02*
X1785714Y-12560971D01*
X1785714Y-12560971D02*
X1728572Y-12675257D01*
X1728572Y-12675257D02*
X1671429Y-12732400D01*
X1671429Y-12732400D02*
X1557143Y-12789542D01*
X1557143Y-12789542D02*
X1442857Y-12789542D01*
X1442857Y-12789542D02*
X1328572Y-12732400D01*
X1328572Y-12732400D02*
X1271429Y-12675257D01*
X1271429Y-12675257D02*
X1214286Y-12560971D01*
X1214286Y-12560971D02*
X1157143Y-12332400D01*
X1157143Y-12332400D02*
X1157143Y-12046685D01*
X1157143Y-12046685D02*
X1214286Y-11818114D01*
X1214286Y-11818114D02*
X1271429Y-11703828D01*
X1271429Y-11703828D02*
X1328572Y-11646685D01*
X1328572Y-11646685D02*
X1442857Y-11589542D01*
D11*
X7357143Y-5305957D02*
X7357143Y-4405957D01*
X7357143Y-4834528D02*
X7871429Y-4834528D01*
X7871429Y-5305957D02*
X7871429Y-4405957D01*
X8300000Y-5305957D02*
X8300000Y-4405957D01*
X9200000Y-4448814D02*
X9114286Y-4405957D01*
X9114286Y-4405957D02*
X8985714Y-4405957D01*
X8985714Y-4405957D02*
X8857143Y-4448814D01*
X8857143Y-4448814D02*
X8771428Y-4534528D01*
X8771428Y-4534528D02*
X8728571Y-4620242D01*
X8728571Y-4620242D02*
X8685714Y-4791671D01*
X8685714Y-4791671D02*
X8685714Y-4920242D01*
X8685714Y-4920242D02*
X8728571Y-5091671D01*
X8728571Y-5091671D02*
X8771428Y-5177385D01*
X8771428Y-5177385D02*
X8857143Y-5263100D01*
X8857143Y-5263100D02*
X8985714Y-5305957D01*
X8985714Y-5305957D02*
X9071428Y-5305957D01*
X9071428Y-5305957D02*
X9200000Y-5263100D01*
X9200000Y-5263100D02*
X9242857Y-5220242D01*
X9242857Y-5220242D02*
X9242857Y-4920242D01*
X9242857Y-4920242D02*
X9071428Y-4920242D01*
X9628571Y-5305957D02*
X9628571Y-4405957D01*
X9628571Y-4834528D02*
X10142857Y-4834528D01*
X10142857Y-5305957D02*
X10142857Y-4405957D01*
X52671428Y-14455957D02*
X52671428Y-13555957D01*
X52671428Y-13555957D02*
X53014285Y-13555957D01*
X53014285Y-13555957D02*
X53100000Y-13598814D01*
X53100000Y-13598814D02*
X53142857Y-13641671D01*
X53142857Y-13641671D02*
X53185714Y-13727385D01*
X53185714Y-13727385D02*
X53185714Y-13855957D01*
X53185714Y-13855957D02*
X53142857Y-13941671D01*
X53142857Y-13941671D02*
X53100000Y-13984528D01*
X53100000Y-13984528D02*
X53014285Y-14027385D01*
X53014285Y-14027385D02*
X52671428Y-14027385D01*
X53742857Y-13555957D02*
X53914285Y-13555957D01*
X53914285Y-13555957D02*
X54000000Y-13598814D01*
X54000000Y-13598814D02*
X54085714Y-13684528D01*
X54085714Y-13684528D02*
X54128571Y-13855957D01*
X54128571Y-13855957D02*
X54128571Y-14155957D01*
X54128571Y-14155957D02*
X54085714Y-14327385D01*
X54085714Y-14327385D02*
X54000000Y-14413100D01*
X54000000Y-14413100D02*
X53914285Y-14455957D01*
X53914285Y-14455957D02*
X53742857Y-14455957D01*
X53742857Y-14455957D02*
X53657143Y-14413100D01*
X53657143Y-14413100D02*
X53571428Y-14327385D01*
X53571428Y-14327385D02*
X53528571Y-14155957D01*
X53528571Y-14155957D02*
X53528571Y-13855957D01*
X53528571Y-13855957D02*
X53571428Y-13684528D01*
X53571428Y-13684528D02*
X53657143Y-13598814D01*
X53657143Y-13598814D02*
X53742857Y-13555957D01*
X54428571Y-13555957D02*
X54642857Y-14455957D01*
X54642857Y-14455957D02*
X54814285Y-13813100D01*
X54814285Y-13813100D02*
X54985714Y-14455957D01*
X54985714Y-14455957D02*
X55200000Y-13555957D01*
X55542856Y-13984528D02*
X55842856Y-13984528D01*
X55971428Y-14455957D02*
X55542856Y-14455957D01*
X55542856Y-14455957D02*
X55542856Y-13555957D01*
X55542856Y-13555957D02*
X55971428Y-13555957D01*
X56871428Y-14455957D02*
X56571428Y-14027385D01*
X56357142Y-14455957D02*
X56357142Y-13555957D01*
X56357142Y-13555957D02*
X56699999Y-13555957D01*
X56699999Y-13555957D02*
X56785714Y-13598814D01*
X56785714Y-13598814D02*
X56828571Y-13641671D01*
X56828571Y-13641671D02*
X56871428Y-13727385D01*
X56871428Y-13727385D02*
X56871428Y-13855957D01*
X56871428Y-13855957D02*
X56828571Y-13941671D01*
X56828571Y-13941671D02*
X56785714Y-13984528D01*
X56785714Y-13984528D02*
X56699999Y-14027385D01*
X56699999Y-14027385D02*
X56357142Y-14027385D01*
D10*
X1842857Y-8289542D02*
X1157143Y-8289542D01*
X1500000Y-8289542D02*
X1500000Y-7089542D01*
X1500000Y-7089542D02*
X1385714Y-7260971D01*
X1385714Y-7260971D02*
X1271429Y-7375257D01*
X1271429Y-7375257D02*
X1157143Y-7432400D01*
D11*
X7792858Y-15505957D02*
X7364286Y-15505957D01*
X7364286Y-15505957D02*
X7364286Y-14605957D01*
X8264286Y-14605957D02*
X8435714Y-14605957D01*
X8435714Y-14605957D02*
X8521429Y-14648814D01*
X8521429Y-14648814D02*
X8607143Y-14734528D01*
X8607143Y-14734528D02*
X8650000Y-14905957D01*
X8650000Y-14905957D02*
X8650000Y-15205957D01*
X8650000Y-15205957D02*
X8607143Y-15377385D01*
X8607143Y-15377385D02*
X8521429Y-15463100D01*
X8521429Y-15463100D02*
X8435714Y-15505957D01*
X8435714Y-15505957D02*
X8264286Y-15505957D01*
X8264286Y-15505957D02*
X8178572Y-15463100D01*
X8178572Y-15463100D02*
X8092857Y-15377385D01*
X8092857Y-15377385D02*
X8050000Y-15205957D01*
X8050000Y-15205957D02*
X8050000Y-14905957D01*
X8050000Y-14905957D02*
X8092857Y-14734528D01*
X8092857Y-14734528D02*
X8178572Y-14648814D01*
X8178572Y-14648814D02*
X8264286Y-14605957D01*
X8950000Y-14605957D02*
X9164286Y-15505957D01*
X9164286Y-15505957D02*
X9335714Y-14863100D01*
X9335714Y-14863100D02*
X9507143Y-15505957D01*
X9507143Y-15505957D02*
X9721429Y-14605957D01*
D10*
X53928571Y-5356900D02*
X55071429Y-5356900D01*
X54500000Y-5928328D02*
X54500000Y-4785471D01*
D12*
%TO.C,C9*%
X33500000Y-6400000D02*
X32500000Y-6400000D01*
X33500000Y-5600000D02*
X32500000Y-5600000D01*
D13*
%TO.C,R10*%
X17450000Y-10400000D02*
X19050000Y-10400000D01*
X19050000Y-11600000D02*
X17450000Y-11600000D01*
%TO.C,R8*%
X17450000Y-12400000D02*
X19050000Y-12400000D01*
X19050000Y-13600000D02*
X17450000Y-13600000D01*
D11*
%TO.C,J1*%
X57950000Y-13500000D02*
X57950000Y-6500000D01*
X65050000Y-13500000D02*
X57950000Y-13500000D01*
X59600000Y-13150000D02*
X59600000Y-6850000D01*
X63400000Y-13150000D02*
X63400000Y-6850000D01*
X64700000Y-13000000D02*
X64700000Y-10500000D01*
X65050000Y-13000000D02*
X64700000Y-13000000D01*
D12*
X64000000Y-11750000D02*
X65500000Y-11750000D01*
D11*
X64700000Y-10500000D02*
X65050000Y-10500000D01*
X64700000Y-9500000D02*
X64700000Y-7000000D01*
X65050000Y-9500000D02*
X64700000Y-9500000D01*
D12*
X64000000Y-8250000D02*
X65500000Y-8250000D01*
D11*
X64700000Y-7000000D02*
X65050000Y-7000000D01*
X57950000Y-6500000D02*
X65050000Y-6500000D01*
X65050000Y-6500000D02*
X65050000Y-13500000D01*
D13*
%TO.C,R15*%
X33350000Y-7450000D02*
X33350000Y-9050000D01*
X32150000Y-9050000D02*
X32150000Y-7450000D01*
D11*
%TO.C,D4*%
X6250000Y-12250000D02*
X7750000Y-12250000D01*
X6250000Y-14250000D02*
X6250000Y-12250000D01*
X7750000Y-14250000D02*
X6250000Y-14250000D01*
X8900000Y-12450000D02*
X8100000Y-12450000D01*
X8900000Y-14050000D02*
X8100000Y-14050000D01*
D14*
X8800000Y-13750000D02*
X8200000Y-13250000D01*
X8800000Y-12750000D01*
X8800000Y-13750000D01*
G36*
X8800000Y-13750000D02*
G01*
X8200000Y-13250000D01*
X8800000Y-12750000D01*
X8800000Y-13750000D01*
G37*
D13*
%TO.C,R13*%
X35100000Y-7450000D02*
X35100000Y-9050000D01*
X33900000Y-9050000D02*
X33900000Y-7450000D01*
%TO.C,R12*%
X30150000Y-9050000D02*
X30150000Y-7450000D01*
X31350000Y-7450000D02*
X31350000Y-9050000D01*
%TO.C,R4*%
X16350000Y-9200000D02*
X16350000Y-10800000D01*
X15150000Y-10800000D02*
X15150000Y-9200000D01*
D12*
%TO.C,C1*%
X13500000Y-8600000D02*
X14500000Y-8600000D01*
X13500000Y-9400000D02*
X14500000Y-9400000D01*
D13*
%TO.C,R3*%
X12850000Y-9200000D02*
X12850000Y-10800000D01*
X11650000Y-10800000D02*
X11650000Y-9200000D01*
D12*
%TO.C,C8*%
X29000000Y-4850000D02*
X30000000Y-4850000D01*
X29000000Y-5650000D02*
X30000000Y-5650000D01*
D13*
%TO.C,R17*%
X3700000Y-6650000D02*
X5300000Y-6650000D01*
X5300000Y-7850000D02*
X3700000Y-7850000D01*
D12*
%TO.C,C6*%
X47350000Y-7500000D02*
X47350000Y-6500000D01*
X48150000Y-7500000D02*
X48150000Y-6500000D01*
%TO.C,C10*%
X23500000Y-15150000D02*
X22500000Y-15150000D01*
X23500000Y-14350000D02*
X22500000Y-14350000D01*
D13*
%TO.C,R16*%
X33350000Y-10950000D02*
X33350000Y-12550000D01*
X32150000Y-12550000D02*
X32150000Y-10950000D01*
%TO.C,R1*%
X12850000Y-5950000D02*
X12850000Y-7550000D01*
X11650000Y-7550000D02*
X11650000Y-5950000D01*
%TO.C,R14*%
X35100000Y-10950000D02*
X35100000Y-12550000D01*
X33900000Y-12550000D02*
X33900000Y-10950000D01*
D11*
%TO.C,D2*%
X6500000Y-5750000D02*
X8000000Y-5750000D01*
X6500000Y-7750000D02*
X6500000Y-5750000D01*
X8000000Y-7750000D02*
X6500000Y-7750000D01*
X9150000Y-5950000D02*
X8350000Y-5950000D01*
X9150000Y-7550000D02*
X8350000Y-7550000D01*
D14*
X9050000Y-7250000D02*
X8450000Y-6750000D01*
X9050000Y-6250000D01*
X9050000Y-7250000D01*
G36*
X9050000Y-7250000D02*
G01*
X8450000Y-6750000D01*
X9050000Y-6250000D01*
X9050000Y-7250000D01*
G37*
D12*
%TO.C,C5*%
X48850000Y-7500000D02*
X48850000Y-6500000D01*
X49650000Y-7500000D02*
X49650000Y-6500000D01*
%TO.C,U1*%
X29440000Y-7925000D02*
X29415000Y-7925000D01*
X29440000Y-7925000D02*
X29440000Y-12075000D01*
X29415000Y-7925000D02*
X29415000Y-6550000D01*
X20560000Y-7925000D02*
X20665000Y-7925000D01*
X20560000Y-7925000D02*
X20560000Y-12075000D01*
X29440000Y-12075000D02*
X29335000Y-12075000D01*
X20560000Y-12075000D02*
X20665000Y-12075000D01*
D13*
%TO.C,R7*%
X17450000Y-6400000D02*
X19050000Y-6400000D01*
X19050000Y-7600000D02*
X17450000Y-7600000D01*
D12*
%TO.C,C2*%
X14500000Y-7400000D02*
X13500000Y-7400000D01*
X14500000Y-6600000D02*
X13500000Y-6600000D01*
D13*
%TO.C,R2*%
X12850000Y-12450000D02*
X12850000Y-14050000D01*
X11650000Y-14050000D02*
X11650000Y-12450000D01*
%TO.C,R5*%
X16350000Y-5950000D02*
X16350000Y-7550000D01*
X15150000Y-7550000D02*
X15150000Y-5950000D01*
%TO.C,R18*%
X50400000Y-12800000D02*
X50400000Y-11200000D01*
X51600000Y-11200000D02*
X51600000Y-12800000D01*
%TO.C,R19*%
X3450000Y-12150000D02*
X5050000Y-12150000D01*
X5050000Y-13350000D02*
X3450000Y-13350000D01*
%TO.C,R9*%
X17450000Y-8400000D02*
X19050000Y-8400000D01*
X19050000Y-9600000D02*
X17450000Y-9600000D01*
%TO.C,R6*%
X16350000Y-12450000D02*
X16350000Y-14050000D01*
X15150000Y-14050000D02*
X15150000Y-12450000D01*
%TO.C,U2*%
X43770000Y-13450000D02*
X43770000Y-13180000D01*
X43770000Y-13180000D02*
X46600000Y-13180000D01*
X43770000Y-6820000D02*
X44870000Y-6820000D01*
X43770000Y-6550000D02*
X43770000Y-6820000D01*
X42270000Y-13450000D02*
X43770000Y-13450000D01*
X42270000Y-6550000D02*
X43770000Y-6550000D01*
D11*
%TO.C,D3*%
X52500000Y-11000000D02*
X54000000Y-11000000D01*
X52500000Y-13000000D02*
X52500000Y-11000000D01*
X54000000Y-13000000D02*
X52500000Y-13000000D01*
X55150000Y-11200000D02*
X54350000Y-11200000D01*
X55150000Y-12800000D02*
X54350000Y-12800000D01*
D14*
X55050000Y-12500000D02*
X54450000Y-12000000D01*
X55050000Y-11500000D01*
X55050000Y-12500000D01*
G36*
X55050000Y-12500000D02*
G01*
X54450000Y-12000000D01*
X55050000Y-11500000D01*
X55050000Y-12500000D01*
G37*
D12*
%TO.C,C7*%
X24750000Y-14350000D02*
X25750000Y-14350000D01*
X24750000Y-15150000D02*
X25750000Y-15150000D01*
D13*
%TO.C,R11*%
X31350000Y-10950000D02*
X31350000Y-12550000D01*
X30150000Y-12550000D02*
X30150000Y-10950000D01*
D12*
%TO.C,C3*%
X25750000Y-5650000D02*
X24750000Y-5650000D01*
X25750000Y-4850000D02*
X24750000Y-4850000D01*
D11*
%TO.C,D1*%
X51150000Y-6550000D02*
X56350000Y-6550000D01*
X51150000Y-9950000D02*
X56350000Y-9950000D01*
X56350000Y-7150000D02*
X56350000Y-6550000D01*
X56350000Y-9350000D02*
X56350000Y-9950000D01*
X51150000Y-7150000D02*
X50850000Y-7150000D01*
X50850000Y-6550000D01*
X51150000Y-6550000D01*
X51150000Y-7150000D01*
G36*
X51150000Y-7150000D02*
G01*
X50850000Y-7150000D01*
X50850000Y-6550000D01*
X51150000Y-6550000D01*
X51150000Y-7150000D01*
G37*
X51150000Y-9950000D02*
X50850000Y-9950000D01*
X50850000Y-9350000D01*
X51150000Y-9350000D01*
X51150000Y-9950000D01*
G36*
X51150000Y-9950000D02*
G01*
X50850000Y-9950000D01*
X50850000Y-9350000D01*
X51150000Y-9350000D01*
X51150000Y-9950000D01*
G37*
%TO.C,C4*%
X49600000Y-9000000D02*
X49600000Y-12000000D01*
X47400000Y-12000000D02*
X47400000Y-9000000D01*
%TD*%
M02*
