%TF.GenerationSoftware,KiCad,Pcbnew,7.0.11-2.fc39*%
%TF.CreationDate,2024-11-23T03:24:36+03:00*%
%TF.ProjectId,logic_tester,6c6f6769-635f-4746-9573-7465722e6b69,1.0*%
%TF.SameCoordinates,PX47868c0PY55d4a80*%
%TF.FileFunction,Paste,Top*%
%TF.FilePolarity,Positive*%
%FSLAX46Y46*%
G04 Gerber Fmt 4.6, Leading zero omitted, Abs format (unit mm)*
G04 Created by KiCad (PCBNEW 7.0.11-2.fc39) date 2024-11-23 03:24:36*
%MOMM*%
%LPD*%
G01*
G04 APERTURE LIST*
%ADD10R,0.400000X0.600000*%
%ADD11R,0.800000X0.900000*%
%ADD12R,0.900000X0.800000*%
%ADD13R,1.500000X1.500000*%
%ADD14R,0.600000X0.400000*%
%ADD15R,0.600000X2.000000*%
%ADD16R,3.050000X2.750000*%
%ADD17R,2.200000X1.200000*%
%ADD18R,2.500000X1.700000*%
%ADD19R,1.800000X1.200000*%
G04 APERTURE END LIST*
D10*
%TO.C,C9*%
X33400000Y-6000000D03*
X32600000Y-6000000D03*
%TD*%
D11*
%TO.C,R10*%
X17500000Y-11000000D03*
X19000000Y-11000000D03*
%TD*%
%TO.C,R8*%
X17500000Y-13000000D03*
X19000000Y-13000000D03*
%TD*%
D12*
%TO.C,R15*%
X32750000Y-7500000D03*
X32750000Y-9000000D03*
%TD*%
D13*
%TO.C,D4*%
X7200000Y-13250000D03*
X9800000Y-13250000D03*
%TD*%
D12*
%TO.C,R13*%
X34500000Y-7500000D03*
X34500000Y-9000000D03*
%TD*%
%TO.C,R12*%
X30750000Y-9000000D03*
X30750000Y-7500000D03*
%TD*%
%TO.C,R4*%
X15750000Y-9250000D03*
X15750000Y-10750000D03*
%TD*%
D10*
%TO.C,C1*%
X13600000Y-9000000D03*
X14400000Y-9000000D03*
%TD*%
D12*
%TO.C,R3*%
X12250000Y-9250000D03*
X12250000Y-10750000D03*
%TD*%
D10*
%TO.C,C8*%
X29100000Y-5250000D03*
X29900000Y-5250000D03*
%TD*%
D11*
%TO.C,R17*%
X3750000Y-7250000D03*
X5250000Y-7250000D03*
%TD*%
D14*
%TO.C,C6*%
X47750000Y-7400000D03*
X47750000Y-6600000D03*
%TD*%
D10*
%TO.C,C10*%
X23400000Y-14750000D03*
X22600000Y-14750000D03*
%TD*%
D12*
%TO.C,R16*%
X32750000Y-11000000D03*
X32750000Y-12500000D03*
%TD*%
%TO.C,R1*%
X12250000Y-6000000D03*
X12250000Y-7500000D03*
%TD*%
%TO.C,R14*%
X34500000Y-11000000D03*
X34500000Y-12500000D03*
%TD*%
D13*
%TO.C,D2*%
X7450000Y-6750000D03*
X10050000Y-6750000D03*
%TD*%
D14*
%TO.C,C5*%
X49250000Y-7400000D03*
X49250000Y-6600000D03*
%TD*%
D15*
%TO.C,U1*%
X28810000Y-7000000D03*
X27540000Y-7000000D03*
X26270000Y-7000000D03*
X25000000Y-7000000D03*
X23730000Y-7000000D03*
X22460000Y-7000000D03*
X21190000Y-7000000D03*
X21190000Y-13000000D03*
X22460000Y-13000000D03*
X23730000Y-13000000D03*
X25000000Y-13000000D03*
X26270000Y-13000000D03*
X27540000Y-13000000D03*
X28810000Y-13000000D03*
%TD*%
D11*
%TO.C,R7*%
X17500000Y-7000000D03*
X19000000Y-7000000D03*
%TD*%
D10*
%TO.C,C2*%
X14400000Y-7000000D03*
X13600000Y-7000000D03*
%TD*%
D12*
%TO.C,R2*%
X12250000Y-12500000D03*
X12250000Y-14000000D03*
%TD*%
%TO.C,R5*%
X15750000Y-6000000D03*
X15750000Y-7500000D03*
%TD*%
%TO.C,R18*%
X51000000Y-12750000D03*
X51000000Y-11250000D03*
%TD*%
D11*
%TO.C,R19*%
X3500000Y-12750000D03*
X5000000Y-12750000D03*
%TD*%
%TO.C,R9*%
X17500000Y-9000000D03*
X19000000Y-9000000D03*
%TD*%
D12*
%TO.C,R6*%
X15750000Y-12500000D03*
X15750000Y-14000000D03*
%TD*%
D16*
%TO.C,U2*%
X40875000Y-11525000D03*
X40875000Y-8475000D03*
X37525000Y-11525000D03*
X37525000Y-8475000D03*
D17*
X45500000Y-12280000D03*
X45500000Y-7720000D03*
%TD*%
D13*
%TO.C,D3*%
X53450000Y-12000000D03*
X56050000Y-12000000D03*
%TD*%
D10*
%TO.C,C7*%
X24850000Y-14750000D03*
X25650000Y-14750000D03*
%TD*%
D12*
%TO.C,R11*%
X30750000Y-11000000D03*
X30750000Y-12500000D03*
%TD*%
D10*
%TO.C,C3*%
X25650000Y-5250000D03*
X24850000Y-5250000D03*
%TD*%
D18*
%TO.C,D1*%
X51750000Y-8250000D03*
X55750000Y-8250000D03*
%TD*%
D19*
%TO.C,C4*%
X48500000Y-9000000D03*
X48500000Y-12000000D03*
%TD*%
M02*
