M48
; DRILL file {KiCad 7.0.11-2.fc39} date Sat 23 Nov 2024 03:24:41 MSK
; FORMAT={-:-/ absolute / metric / decimal}
; #@! TF.CreationDate,2024-11-23T03:24:41+03:00
; #@! TF.GenerationSoftware,Kicad,Pcbnew,7.0.11-2.fc39
; #@! TF.FileFunction,MixedPlating,1,2
FMAT,2
METRIC
; #@! TA.AperFunction,Plated,PTH,ViaDrill
T1C0.300
; #@! TA.AperFunction,Plated,PTH,ComponentDrill
T2C1.000
; #@! TA.AperFunction,Plated,PTH,ComponentDrill
T3C1.200
%
G90
G05
T1
X2.5Y-7.25
X2.5Y-8.25
X2.5Y-11.75
X2.5Y-12.75
X10.25Y-9.25
X10.25Y-10.75
X10.5Y-8.25
X10.5Y-11.75
X11.0Y-5.0
X11.0Y-15.0
X11.25Y-9.25
X11.25Y-10.75
X12.25Y-5.0
X13.5Y-8.0
X14.0Y-11.5
X14.0Y-13.0
X14.0Y-14.0
X14.5Y-5.0
X14.5Y-6.0
X20.0Y-6.0
X23.25Y-8.75
X25.5Y-8.75
X26.0Y-11.25
X26.5Y-5.25
X26.5Y-14.75
X27.25Y-5.25
X27.25Y-8.75
X27.25Y-11.25
X27.5Y-14.75
X28.0Y-5.25
X30.75Y-6.25
X30.75Y-10.0
X32.75Y-13.75
X33.5Y-5.0
X34.25Y-5.0
X34.5Y-10.0
X34.5Y-13.75
X36.5Y-6.0
X36.5Y-14.0
X37.75Y-6.0
X37.75Y-14.0
X39.0Y-6.0
X39.0Y-14.0
X40.25Y-6.0
X40.25Y-14.0
X41.5Y-5.5
X41.5Y-14.5
X44.75Y-6.0
X45.0Y-10.5
X45.5Y-6.0
X46.25Y-6.0
X47.5Y-13.75
X47.75Y-5.75
X48.5Y-13.75
X49.25Y-5.75
X49.5Y-13.75
T2
X61.5Y-8.25
X61.5Y-11.75
T3
X8.4Y-10.0
M30
