%TF.GenerationSoftware,KiCad,Pcbnew,7.0.11-2.fc39*%
%TF.CreationDate,2024-11-23T03:24:36+03:00*%
%TF.ProjectId,logic_tester,6c6f6769-635f-4746-9573-7465722e6b69,1.0*%
%TF.SameCoordinates,PX47868c0PY55d4a80*%
%TF.FileFunction,Soldermask,Top*%
%TF.FilePolarity,Negative*%
%FSLAX46Y46*%
G04 Gerber Fmt 4.6, Leading zero omitted, Abs format (unit mm)*
G04 Created by KiCad (PCBNEW 7.0.11-2.fc39) date 2024-11-23 03:24:36*
%MOMM*%
%LPD*%
G01*
G04 APERTURE LIST*
G04 Aperture macros list*
%AMRoundRect*
0 Rectangle with rounded corners*
0 $1 Rounding radius*
0 $2 $3 $4 $5 $6 $7 $8 $9 X,Y pos of 4 corners*
0 Add a 4 corners polygon primitive as box body*
4,1,4,$2,$3,$4,$5,$6,$7,$8,$9,$2,$3,0*
0 Add four circle primitives for the rounded corners*
1,1,$1+$1,$2,$3*
1,1,$1+$1,$4,$5*
1,1,$1+$1,$6,$7*
1,1,$1+$1,$8,$9*
0 Add four rect primitives between the rounded corners*
20,1,$1+$1,$2,$3,$4,$5,0*
20,1,$1+$1,$4,$5,$6,$7,0*
20,1,$1+$1,$6,$7,$8,$9,0*
20,1,$1+$1,$8,$9,$2,$3,0*%
G04 Aperture macros list end*
%ADD10R,0.400000X0.600000*%
%ADD11R,0.800000X0.900000*%
%ADD12C,2.200000*%
%ADD13R,0.900000X0.800000*%
%ADD14R,1.500000X1.500000*%
%ADD15R,0.600000X0.400000*%
%ADD16RoundRect,0.550000X0.550000X0.550000X-0.550000X0.550000X-0.550000X-0.550000X0.550000X-0.550000X0*%
%ADD17RoundRect,0.400000X1.850000X0.400000X-1.850000X0.400000X-1.850000X-0.400000X1.850000X-0.400000X0*%
%ADD18R,0.600000X2.000000*%
%ADD19R,2.200000X1.200000*%
%ADD20R,6.400000X5.800000*%
%ADD21R,2.500000X1.700000*%
%ADD22R,1.800000X1.200000*%
G04 APERTURE END LIST*
D10*
%TO.C,C9*%
X33400000Y-6000000D03*
X32600000Y-6000000D03*
%TD*%
D11*
%TO.C,R10*%
X17500000Y-11000000D03*
X19000000Y-11000000D03*
%TD*%
%TO.C,R8*%
X17500000Y-13000000D03*
X19000000Y-13000000D03*
%TD*%
D12*
%TO.C,J1*%
X61500000Y-11750000D03*
X61500000Y-8250000D03*
%TD*%
D13*
%TO.C,R15*%
X32750000Y-7500000D03*
X32750000Y-9000000D03*
%TD*%
D14*
%TO.C,D4*%
X7200000Y-13250000D03*
X9800000Y-13250000D03*
%TD*%
D13*
%TO.C,R13*%
X34500000Y-7500000D03*
X34500000Y-9000000D03*
%TD*%
%TO.C,R12*%
X30750000Y-9000000D03*
X30750000Y-7500000D03*
%TD*%
%TO.C,R4*%
X15750000Y-9250000D03*
X15750000Y-10750000D03*
%TD*%
D10*
%TO.C,C1*%
X13600000Y-9000000D03*
X14400000Y-9000000D03*
%TD*%
D13*
%TO.C,R3*%
X12250000Y-9250000D03*
X12250000Y-10750000D03*
%TD*%
D10*
%TO.C,C8*%
X29100000Y-5250000D03*
X29900000Y-5250000D03*
%TD*%
D11*
%TO.C,R17*%
X3750000Y-7250000D03*
X5250000Y-7250000D03*
%TD*%
D15*
%TO.C,C6*%
X47750000Y-7400000D03*
X47750000Y-6600000D03*
%TD*%
D10*
%TO.C,C10*%
X23400000Y-14750000D03*
X22600000Y-14750000D03*
%TD*%
D16*
%TO.C,J2*%
X8400000Y-10000000D03*
D17*
X7000000Y-10000000D03*
%TD*%
D13*
%TO.C,R16*%
X32750000Y-11000000D03*
X32750000Y-12500000D03*
%TD*%
%TO.C,R1*%
X12250000Y-6000000D03*
X12250000Y-7500000D03*
%TD*%
%TO.C,R14*%
X34500000Y-11000000D03*
X34500000Y-12500000D03*
%TD*%
D14*
%TO.C,D2*%
X7450000Y-6750000D03*
X10050000Y-6750000D03*
%TD*%
D15*
%TO.C,C5*%
X49250000Y-7400000D03*
X49250000Y-6600000D03*
%TD*%
D18*
%TO.C,U1*%
X28810000Y-7000000D03*
X27540000Y-7000000D03*
X26270000Y-7000000D03*
X25000000Y-7000000D03*
X23730000Y-7000000D03*
X22460000Y-7000000D03*
X21190000Y-7000000D03*
X21190000Y-13000000D03*
X22460000Y-13000000D03*
X23730000Y-13000000D03*
X25000000Y-13000000D03*
X26270000Y-13000000D03*
X27540000Y-13000000D03*
X28810000Y-13000000D03*
%TD*%
D11*
%TO.C,R7*%
X17500000Y-7000000D03*
X19000000Y-7000000D03*
%TD*%
D10*
%TO.C,C2*%
X14400000Y-7000000D03*
X13600000Y-7000000D03*
%TD*%
D13*
%TO.C,R2*%
X12250000Y-12500000D03*
X12250000Y-14000000D03*
%TD*%
%TO.C,R5*%
X15750000Y-6000000D03*
X15750000Y-7500000D03*
%TD*%
%TO.C,R18*%
X51000000Y-12750000D03*
X51000000Y-11250000D03*
%TD*%
D11*
%TO.C,R19*%
X3500000Y-12750000D03*
X5000000Y-12750000D03*
%TD*%
%TO.C,R9*%
X17500000Y-9000000D03*
X19000000Y-9000000D03*
%TD*%
D13*
%TO.C,R6*%
X15750000Y-12500000D03*
X15750000Y-14000000D03*
%TD*%
D19*
%TO.C,U2*%
X45500000Y-12280000D03*
D20*
X39200000Y-10000000D03*
D19*
X45500000Y-7720000D03*
%TD*%
D14*
%TO.C,D3*%
X53450000Y-12000000D03*
X56050000Y-12000000D03*
%TD*%
D10*
%TO.C,C7*%
X24850000Y-14750000D03*
X25650000Y-14750000D03*
%TD*%
D13*
%TO.C,R11*%
X30750000Y-11000000D03*
X30750000Y-12500000D03*
%TD*%
D10*
%TO.C,C3*%
X25650000Y-5250000D03*
X24850000Y-5250000D03*
%TD*%
D21*
%TO.C,D1*%
X51750000Y-8250000D03*
X55750000Y-8250000D03*
%TD*%
D22*
%TO.C,C4*%
X48500000Y-9000000D03*
X48500000Y-12000000D03*
%TD*%
G36*
X4009685Y-9251275D02*
G01*
X4109960Y-9264476D01*
X4147532Y-9274543D01*
X4231877Y-9309480D01*
X4265562Y-9328928D01*
X4337990Y-9384504D01*
X4365495Y-9412009D01*
X4421071Y-9484437D01*
X4440519Y-9518122D01*
X4475456Y-9602467D01*
X4485523Y-9640038D01*
X4498725Y-9740314D01*
X4500000Y-9759763D01*
X4500000Y-10240236D01*
X4498725Y-10259685D01*
X4485523Y-10359961D01*
X4475456Y-10397532D01*
X4440519Y-10481877D01*
X4421071Y-10515562D01*
X4365495Y-10587990D01*
X4337990Y-10615495D01*
X4265562Y-10671071D01*
X4231877Y-10690519D01*
X4147532Y-10725456D01*
X4109961Y-10735523D01*
X4009686Y-10748725D01*
X3990237Y-10750000D01*
X1259763Y-10750000D01*
X1240314Y-10748725D01*
X1140038Y-10735523D01*
X1102467Y-10725456D01*
X1018122Y-10690519D01*
X984437Y-10671071D01*
X912009Y-10615495D01*
X884504Y-10587990D01*
X828928Y-10515562D01*
X809480Y-10481877D01*
X774543Y-10397532D01*
X764476Y-10359960D01*
X751275Y-10259684D01*
X750000Y-10240236D01*
X750000Y-9759763D01*
X751275Y-9740315D01*
X764476Y-9640039D01*
X774543Y-9602467D01*
X809480Y-9518122D01*
X828928Y-9484437D01*
X884504Y-9412009D01*
X912009Y-9384504D01*
X984437Y-9328928D01*
X1018122Y-9309480D01*
X1102467Y-9274543D01*
X1140039Y-9264476D01*
X1240315Y-9251275D01*
X1259763Y-9250000D01*
X3990237Y-9250000D01*
X4009685Y-9251275D01*
G37*
M02*
