%TF.GenerationSoftware,KiCad,Pcbnew,7.0.11-2.fc39*%
%TF.CreationDate,2024-11-23T03:24:37+03:00*%
%TF.ProjectId,logic_tester,6c6f6769-635f-4746-9573-7465722e6b69,1.0*%
%TF.SameCoordinates,PX47868c0PY55d4a80*%
%TF.FileFunction,AssemblyDrawing,Top*%
%FSLAX46Y46*%
G04 Gerber Fmt 4.6, Leading zero omitted, Abs format (unit mm)*
G04 Created by KiCad (PCBNEW 7.0.11-2.fc39) date 2024-11-23 03:24:37*
%MOMM*%
%LPD*%
G01*
G04 APERTURE LIST*
%ADD10C,0.100000*%
%ADD11C,0.150000*%
%ADD12C,0.135000*%
%ADD13C,0.105000*%
%ADD14C,0.120000*%
%ADD15C,0.300000*%
G04 APERTURE END LIST*
D10*
X32933333Y-6141752D02*
X32914285Y-6160800D01*
X32914285Y-6160800D02*
X32857143Y-6179847D01*
X32857143Y-6179847D02*
X32819047Y-6179847D01*
X32819047Y-6179847D02*
X32761904Y-6160800D01*
X32761904Y-6160800D02*
X32723809Y-6122704D01*
X32723809Y-6122704D02*
X32704762Y-6084609D01*
X32704762Y-6084609D02*
X32685714Y-6008419D01*
X32685714Y-6008419D02*
X32685714Y-5951276D01*
X32685714Y-5951276D02*
X32704762Y-5875085D01*
X32704762Y-5875085D02*
X32723809Y-5836990D01*
X32723809Y-5836990D02*
X32761904Y-5798895D01*
X32761904Y-5798895D02*
X32819047Y-5779847D01*
X32819047Y-5779847D02*
X32857143Y-5779847D01*
X32857143Y-5779847D02*
X32914285Y-5798895D01*
X32914285Y-5798895D02*
X32933333Y-5817942D01*
X33123809Y-6179847D02*
X33200000Y-6179847D01*
X33200000Y-6179847D02*
X33238095Y-6160800D01*
X33238095Y-6160800D02*
X33257143Y-6141752D01*
X33257143Y-6141752D02*
X33295238Y-6084609D01*
X33295238Y-6084609D02*
X33314285Y-6008419D01*
X33314285Y-6008419D02*
X33314285Y-5856038D01*
X33314285Y-5856038D02*
X33295238Y-5817942D01*
X33295238Y-5817942D02*
X33276190Y-5798895D01*
X33276190Y-5798895D02*
X33238095Y-5779847D01*
X33238095Y-5779847D02*
X33161904Y-5779847D01*
X33161904Y-5779847D02*
X33123809Y-5798895D01*
X33123809Y-5798895D02*
X33104762Y-5817942D01*
X33104762Y-5817942D02*
X33085714Y-5856038D01*
X33085714Y-5856038D02*
X33085714Y-5951276D01*
X33085714Y-5951276D02*
X33104762Y-5989371D01*
X33104762Y-5989371D02*
X33123809Y-6008419D01*
X33123809Y-6008419D02*
X33161904Y-6027466D01*
X33161904Y-6027466D02*
X33238095Y-6027466D01*
X33238095Y-6027466D02*
X33276190Y-6008419D01*
X33276190Y-6008419D02*
X33295238Y-5989371D01*
X33295238Y-5989371D02*
X33314285Y-5951276D01*
X17928571Y-11226109D02*
X17761905Y-10988014D01*
X17642857Y-11226109D02*
X17642857Y-10726109D01*
X17642857Y-10726109D02*
X17833333Y-10726109D01*
X17833333Y-10726109D02*
X17880952Y-10749919D01*
X17880952Y-10749919D02*
X17904762Y-10773728D01*
X17904762Y-10773728D02*
X17928571Y-10821347D01*
X17928571Y-10821347D02*
X17928571Y-10892776D01*
X17928571Y-10892776D02*
X17904762Y-10940395D01*
X17904762Y-10940395D02*
X17880952Y-10964204D01*
X17880952Y-10964204D02*
X17833333Y-10988014D01*
X17833333Y-10988014D02*
X17642857Y-10988014D01*
X18404762Y-11226109D02*
X18119048Y-11226109D01*
X18261905Y-11226109D02*
X18261905Y-10726109D01*
X18261905Y-10726109D02*
X18214286Y-10797538D01*
X18214286Y-10797538D02*
X18166667Y-10845157D01*
X18166667Y-10845157D02*
X18119048Y-10868966D01*
X18714285Y-10726109D02*
X18761904Y-10726109D01*
X18761904Y-10726109D02*
X18809523Y-10749919D01*
X18809523Y-10749919D02*
X18833333Y-10773728D01*
X18833333Y-10773728D02*
X18857142Y-10821347D01*
X18857142Y-10821347D02*
X18880952Y-10916585D01*
X18880952Y-10916585D02*
X18880952Y-11035633D01*
X18880952Y-11035633D02*
X18857142Y-11130871D01*
X18857142Y-11130871D02*
X18833333Y-11178490D01*
X18833333Y-11178490D02*
X18809523Y-11202300D01*
X18809523Y-11202300D02*
X18761904Y-11226109D01*
X18761904Y-11226109D02*
X18714285Y-11226109D01*
X18714285Y-11226109D02*
X18666666Y-11202300D01*
X18666666Y-11202300D02*
X18642857Y-11178490D01*
X18642857Y-11178490D02*
X18619047Y-11130871D01*
X18619047Y-11130871D02*
X18595238Y-11035633D01*
X18595238Y-11035633D02*
X18595238Y-10916585D01*
X18595238Y-10916585D02*
X18619047Y-10821347D01*
X18619047Y-10821347D02*
X18642857Y-10773728D01*
X18642857Y-10773728D02*
X18666666Y-10749919D01*
X18666666Y-10749919D02*
X18714285Y-10726109D01*
X18166666Y-13226109D02*
X18000000Y-12988014D01*
X17880952Y-13226109D02*
X17880952Y-12726109D01*
X17880952Y-12726109D02*
X18071428Y-12726109D01*
X18071428Y-12726109D02*
X18119047Y-12749919D01*
X18119047Y-12749919D02*
X18142857Y-12773728D01*
X18142857Y-12773728D02*
X18166666Y-12821347D01*
X18166666Y-12821347D02*
X18166666Y-12892776D01*
X18166666Y-12892776D02*
X18142857Y-12940395D01*
X18142857Y-12940395D02*
X18119047Y-12964204D01*
X18119047Y-12964204D02*
X18071428Y-12988014D01*
X18071428Y-12988014D02*
X17880952Y-12988014D01*
X18452381Y-12940395D02*
X18404762Y-12916585D01*
X18404762Y-12916585D02*
X18380952Y-12892776D01*
X18380952Y-12892776D02*
X18357143Y-12845157D01*
X18357143Y-12845157D02*
X18357143Y-12821347D01*
X18357143Y-12821347D02*
X18380952Y-12773728D01*
X18380952Y-12773728D02*
X18404762Y-12749919D01*
X18404762Y-12749919D02*
X18452381Y-12726109D01*
X18452381Y-12726109D02*
X18547619Y-12726109D01*
X18547619Y-12726109D02*
X18595238Y-12749919D01*
X18595238Y-12749919D02*
X18619047Y-12773728D01*
X18619047Y-12773728D02*
X18642857Y-12821347D01*
X18642857Y-12821347D02*
X18642857Y-12845157D01*
X18642857Y-12845157D02*
X18619047Y-12892776D01*
X18619047Y-12892776D02*
X18595238Y-12916585D01*
X18595238Y-12916585D02*
X18547619Y-12940395D01*
X18547619Y-12940395D02*
X18452381Y-12940395D01*
X18452381Y-12940395D02*
X18404762Y-12964204D01*
X18404762Y-12964204D02*
X18380952Y-12988014D01*
X18380952Y-12988014D02*
X18357143Y-13035633D01*
X18357143Y-13035633D02*
X18357143Y-13130871D01*
X18357143Y-13130871D02*
X18380952Y-13178490D01*
X18380952Y-13178490D02*
X18404762Y-13202300D01*
X18404762Y-13202300D02*
X18452381Y-13226109D01*
X18452381Y-13226109D02*
X18547619Y-13226109D01*
X18547619Y-13226109D02*
X18595238Y-13202300D01*
X18595238Y-13202300D02*
X18619047Y-13178490D01*
X18619047Y-13178490D02*
X18642857Y-13130871D01*
X18642857Y-13130871D02*
X18642857Y-13035633D01*
X18642857Y-13035633D02*
X18619047Y-12988014D01*
X18619047Y-12988014D02*
X18595238Y-12964204D01*
X18595238Y-12964204D02*
X18547619Y-12940395D01*
D11*
X58204819Y-10333333D02*
X58919104Y-10333333D01*
X58919104Y-10333333D02*
X59061961Y-10380952D01*
X59061961Y-10380952D02*
X59157200Y-10476190D01*
X59157200Y-10476190D02*
X59204819Y-10619047D01*
X59204819Y-10619047D02*
X59204819Y-10714285D01*
X59204819Y-9333333D02*
X59204819Y-9904761D01*
X59204819Y-9619047D02*
X58204819Y-9619047D01*
X58204819Y-9619047D02*
X58347676Y-9714285D01*
X58347676Y-9714285D02*
X58442914Y-9809523D01*
X58442914Y-9809523D02*
X58490533Y-9904761D01*
D10*
X32976109Y-8571428D02*
X32738014Y-8738094D01*
X32976109Y-8857142D02*
X32476109Y-8857142D01*
X32476109Y-8857142D02*
X32476109Y-8666666D01*
X32476109Y-8666666D02*
X32499919Y-8619047D01*
X32499919Y-8619047D02*
X32523728Y-8595237D01*
X32523728Y-8595237D02*
X32571347Y-8571428D01*
X32571347Y-8571428D02*
X32642776Y-8571428D01*
X32642776Y-8571428D02*
X32690395Y-8595237D01*
X32690395Y-8595237D02*
X32714204Y-8619047D01*
X32714204Y-8619047D02*
X32738014Y-8666666D01*
X32738014Y-8666666D02*
X32738014Y-8857142D01*
X32976109Y-8095237D02*
X32976109Y-8380951D01*
X32976109Y-8238094D02*
X32476109Y-8238094D01*
X32476109Y-8238094D02*
X32547538Y-8285713D01*
X32547538Y-8285713D02*
X32595157Y-8333332D01*
X32595157Y-8333332D02*
X32618966Y-8380951D01*
X32476109Y-7642857D02*
X32476109Y-7880952D01*
X32476109Y-7880952D02*
X32714204Y-7904761D01*
X32714204Y-7904761D02*
X32690395Y-7880952D01*
X32690395Y-7880952D02*
X32666585Y-7833333D01*
X32666585Y-7833333D02*
X32666585Y-7714285D01*
X32666585Y-7714285D02*
X32690395Y-7666666D01*
X32690395Y-7666666D02*
X32714204Y-7642857D01*
X32714204Y-7642857D02*
X32761823Y-7619047D01*
X32761823Y-7619047D02*
X32880871Y-7619047D01*
X32880871Y-7619047D02*
X32928490Y-7642857D01*
X32928490Y-7642857D02*
X32952300Y-7666666D01*
X32952300Y-7666666D02*
X32976109Y-7714285D01*
X32976109Y-7714285D02*
X32976109Y-7833333D01*
X32976109Y-7833333D02*
X32952300Y-7880952D01*
X32952300Y-7880952D02*
X32928490Y-7904761D01*
X7983333Y-13568633D02*
X7983333Y-12868633D01*
X7983333Y-12868633D02*
X8150000Y-12868633D01*
X8150000Y-12868633D02*
X8250000Y-12901966D01*
X8250000Y-12901966D02*
X8316667Y-12968633D01*
X8316667Y-12968633D02*
X8350000Y-13035300D01*
X8350000Y-13035300D02*
X8383333Y-13168633D01*
X8383333Y-13168633D02*
X8383333Y-13268633D01*
X8383333Y-13268633D02*
X8350000Y-13401966D01*
X8350000Y-13401966D02*
X8316667Y-13468633D01*
X8316667Y-13468633D02*
X8250000Y-13535300D01*
X8250000Y-13535300D02*
X8150000Y-13568633D01*
X8150000Y-13568633D02*
X7983333Y-13568633D01*
X8983333Y-13101966D02*
X8983333Y-13568633D01*
X8816667Y-12835300D02*
X8650000Y-13335300D01*
X8650000Y-13335300D02*
X9083333Y-13335300D01*
X34726109Y-8571428D02*
X34488014Y-8738094D01*
X34726109Y-8857142D02*
X34226109Y-8857142D01*
X34226109Y-8857142D02*
X34226109Y-8666666D01*
X34226109Y-8666666D02*
X34249919Y-8619047D01*
X34249919Y-8619047D02*
X34273728Y-8595237D01*
X34273728Y-8595237D02*
X34321347Y-8571428D01*
X34321347Y-8571428D02*
X34392776Y-8571428D01*
X34392776Y-8571428D02*
X34440395Y-8595237D01*
X34440395Y-8595237D02*
X34464204Y-8619047D01*
X34464204Y-8619047D02*
X34488014Y-8666666D01*
X34488014Y-8666666D02*
X34488014Y-8857142D01*
X34726109Y-8095237D02*
X34726109Y-8380951D01*
X34726109Y-8238094D02*
X34226109Y-8238094D01*
X34226109Y-8238094D02*
X34297538Y-8285713D01*
X34297538Y-8285713D02*
X34345157Y-8333332D01*
X34345157Y-8333332D02*
X34368966Y-8380951D01*
X34226109Y-7928571D02*
X34226109Y-7619047D01*
X34226109Y-7619047D02*
X34416585Y-7785714D01*
X34416585Y-7785714D02*
X34416585Y-7714285D01*
X34416585Y-7714285D02*
X34440395Y-7666666D01*
X34440395Y-7666666D02*
X34464204Y-7642857D01*
X34464204Y-7642857D02*
X34511823Y-7619047D01*
X34511823Y-7619047D02*
X34630871Y-7619047D01*
X34630871Y-7619047D02*
X34678490Y-7642857D01*
X34678490Y-7642857D02*
X34702300Y-7666666D01*
X34702300Y-7666666D02*
X34726109Y-7714285D01*
X34726109Y-7714285D02*
X34726109Y-7857142D01*
X34726109Y-7857142D02*
X34702300Y-7904761D01*
X34702300Y-7904761D02*
X34678490Y-7928571D01*
X30976109Y-8571428D02*
X30738014Y-8738094D01*
X30976109Y-8857142D02*
X30476109Y-8857142D01*
X30476109Y-8857142D02*
X30476109Y-8666666D01*
X30476109Y-8666666D02*
X30499919Y-8619047D01*
X30499919Y-8619047D02*
X30523728Y-8595237D01*
X30523728Y-8595237D02*
X30571347Y-8571428D01*
X30571347Y-8571428D02*
X30642776Y-8571428D01*
X30642776Y-8571428D02*
X30690395Y-8595237D01*
X30690395Y-8595237D02*
X30714204Y-8619047D01*
X30714204Y-8619047D02*
X30738014Y-8666666D01*
X30738014Y-8666666D02*
X30738014Y-8857142D01*
X30976109Y-8095237D02*
X30976109Y-8380951D01*
X30976109Y-8238094D02*
X30476109Y-8238094D01*
X30476109Y-8238094D02*
X30547538Y-8285713D01*
X30547538Y-8285713D02*
X30595157Y-8333332D01*
X30595157Y-8333332D02*
X30618966Y-8380951D01*
X30523728Y-7904761D02*
X30499919Y-7880952D01*
X30499919Y-7880952D02*
X30476109Y-7833333D01*
X30476109Y-7833333D02*
X30476109Y-7714285D01*
X30476109Y-7714285D02*
X30499919Y-7666666D01*
X30499919Y-7666666D02*
X30523728Y-7642857D01*
X30523728Y-7642857D02*
X30571347Y-7619047D01*
X30571347Y-7619047D02*
X30618966Y-7619047D01*
X30618966Y-7619047D02*
X30690395Y-7642857D01*
X30690395Y-7642857D02*
X30976109Y-7928571D01*
X30976109Y-7928571D02*
X30976109Y-7619047D01*
X15976109Y-10083333D02*
X15738014Y-10249999D01*
X15976109Y-10369047D02*
X15476109Y-10369047D01*
X15476109Y-10369047D02*
X15476109Y-10178571D01*
X15476109Y-10178571D02*
X15499919Y-10130952D01*
X15499919Y-10130952D02*
X15523728Y-10107142D01*
X15523728Y-10107142D02*
X15571347Y-10083333D01*
X15571347Y-10083333D02*
X15642776Y-10083333D01*
X15642776Y-10083333D02*
X15690395Y-10107142D01*
X15690395Y-10107142D02*
X15714204Y-10130952D01*
X15714204Y-10130952D02*
X15738014Y-10178571D01*
X15738014Y-10178571D02*
X15738014Y-10369047D01*
X15642776Y-9654761D02*
X15976109Y-9654761D01*
X15452300Y-9773809D02*
X15809442Y-9892856D01*
X15809442Y-9892856D02*
X15809442Y-9583333D01*
X13933333Y-9141752D02*
X13914285Y-9160800D01*
X13914285Y-9160800D02*
X13857143Y-9179847D01*
X13857143Y-9179847D02*
X13819047Y-9179847D01*
X13819047Y-9179847D02*
X13761904Y-9160800D01*
X13761904Y-9160800D02*
X13723809Y-9122704D01*
X13723809Y-9122704D02*
X13704762Y-9084609D01*
X13704762Y-9084609D02*
X13685714Y-9008419D01*
X13685714Y-9008419D02*
X13685714Y-8951276D01*
X13685714Y-8951276D02*
X13704762Y-8875085D01*
X13704762Y-8875085D02*
X13723809Y-8836990D01*
X13723809Y-8836990D02*
X13761904Y-8798895D01*
X13761904Y-8798895D02*
X13819047Y-8779847D01*
X13819047Y-8779847D02*
X13857143Y-8779847D01*
X13857143Y-8779847D02*
X13914285Y-8798895D01*
X13914285Y-8798895D02*
X13933333Y-8817942D01*
X14314285Y-9179847D02*
X14085714Y-9179847D01*
X14200000Y-9179847D02*
X14200000Y-8779847D01*
X14200000Y-8779847D02*
X14161904Y-8836990D01*
X14161904Y-8836990D02*
X14123809Y-8875085D01*
X14123809Y-8875085D02*
X14085714Y-8894133D01*
X12476109Y-10083333D02*
X12238014Y-10249999D01*
X12476109Y-10369047D02*
X11976109Y-10369047D01*
X11976109Y-10369047D02*
X11976109Y-10178571D01*
X11976109Y-10178571D02*
X11999919Y-10130952D01*
X11999919Y-10130952D02*
X12023728Y-10107142D01*
X12023728Y-10107142D02*
X12071347Y-10083333D01*
X12071347Y-10083333D02*
X12142776Y-10083333D01*
X12142776Y-10083333D02*
X12190395Y-10107142D01*
X12190395Y-10107142D02*
X12214204Y-10130952D01*
X12214204Y-10130952D02*
X12238014Y-10178571D01*
X12238014Y-10178571D02*
X12238014Y-10369047D01*
X11976109Y-9916666D02*
X11976109Y-9607142D01*
X11976109Y-9607142D02*
X12166585Y-9773809D01*
X12166585Y-9773809D02*
X12166585Y-9702380D01*
X12166585Y-9702380D02*
X12190395Y-9654761D01*
X12190395Y-9654761D02*
X12214204Y-9630952D01*
X12214204Y-9630952D02*
X12261823Y-9607142D01*
X12261823Y-9607142D02*
X12380871Y-9607142D01*
X12380871Y-9607142D02*
X12428490Y-9630952D01*
X12428490Y-9630952D02*
X12452300Y-9654761D01*
X12452300Y-9654761D02*
X12476109Y-9702380D01*
X12476109Y-9702380D02*
X12476109Y-9845237D01*
X12476109Y-9845237D02*
X12452300Y-9892856D01*
X12452300Y-9892856D02*
X12428490Y-9916666D01*
X29433333Y-5391752D02*
X29414285Y-5410800D01*
X29414285Y-5410800D02*
X29357143Y-5429847D01*
X29357143Y-5429847D02*
X29319047Y-5429847D01*
X29319047Y-5429847D02*
X29261904Y-5410800D01*
X29261904Y-5410800D02*
X29223809Y-5372704D01*
X29223809Y-5372704D02*
X29204762Y-5334609D01*
X29204762Y-5334609D02*
X29185714Y-5258419D01*
X29185714Y-5258419D02*
X29185714Y-5201276D01*
X29185714Y-5201276D02*
X29204762Y-5125085D01*
X29204762Y-5125085D02*
X29223809Y-5086990D01*
X29223809Y-5086990D02*
X29261904Y-5048895D01*
X29261904Y-5048895D02*
X29319047Y-5029847D01*
X29319047Y-5029847D02*
X29357143Y-5029847D01*
X29357143Y-5029847D02*
X29414285Y-5048895D01*
X29414285Y-5048895D02*
X29433333Y-5067942D01*
X29661904Y-5201276D02*
X29623809Y-5182228D01*
X29623809Y-5182228D02*
X29604762Y-5163180D01*
X29604762Y-5163180D02*
X29585714Y-5125085D01*
X29585714Y-5125085D02*
X29585714Y-5106038D01*
X29585714Y-5106038D02*
X29604762Y-5067942D01*
X29604762Y-5067942D02*
X29623809Y-5048895D01*
X29623809Y-5048895D02*
X29661904Y-5029847D01*
X29661904Y-5029847D02*
X29738095Y-5029847D01*
X29738095Y-5029847D02*
X29776190Y-5048895D01*
X29776190Y-5048895D02*
X29795238Y-5067942D01*
X29795238Y-5067942D02*
X29814285Y-5106038D01*
X29814285Y-5106038D02*
X29814285Y-5125085D01*
X29814285Y-5125085D02*
X29795238Y-5163180D01*
X29795238Y-5163180D02*
X29776190Y-5182228D01*
X29776190Y-5182228D02*
X29738095Y-5201276D01*
X29738095Y-5201276D02*
X29661904Y-5201276D01*
X29661904Y-5201276D02*
X29623809Y-5220323D01*
X29623809Y-5220323D02*
X29604762Y-5239371D01*
X29604762Y-5239371D02*
X29585714Y-5277466D01*
X29585714Y-5277466D02*
X29585714Y-5353657D01*
X29585714Y-5353657D02*
X29604762Y-5391752D01*
X29604762Y-5391752D02*
X29623809Y-5410800D01*
X29623809Y-5410800D02*
X29661904Y-5429847D01*
X29661904Y-5429847D02*
X29738095Y-5429847D01*
X29738095Y-5429847D02*
X29776190Y-5410800D01*
X29776190Y-5410800D02*
X29795238Y-5391752D01*
X29795238Y-5391752D02*
X29814285Y-5353657D01*
X29814285Y-5353657D02*
X29814285Y-5277466D01*
X29814285Y-5277466D02*
X29795238Y-5239371D01*
X29795238Y-5239371D02*
X29776190Y-5220323D01*
X29776190Y-5220323D02*
X29738095Y-5201276D01*
X4178571Y-7476109D02*
X4011905Y-7238014D01*
X3892857Y-7476109D02*
X3892857Y-6976109D01*
X3892857Y-6976109D02*
X4083333Y-6976109D01*
X4083333Y-6976109D02*
X4130952Y-6999919D01*
X4130952Y-6999919D02*
X4154762Y-7023728D01*
X4154762Y-7023728D02*
X4178571Y-7071347D01*
X4178571Y-7071347D02*
X4178571Y-7142776D01*
X4178571Y-7142776D02*
X4154762Y-7190395D01*
X4154762Y-7190395D02*
X4130952Y-7214204D01*
X4130952Y-7214204D02*
X4083333Y-7238014D01*
X4083333Y-7238014D02*
X3892857Y-7238014D01*
X4654762Y-7476109D02*
X4369048Y-7476109D01*
X4511905Y-7476109D02*
X4511905Y-6976109D01*
X4511905Y-6976109D02*
X4464286Y-7047538D01*
X4464286Y-7047538D02*
X4416667Y-7095157D01*
X4416667Y-7095157D02*
X4369048Y-7118966D01*
X4821428Y-6976109D02*
X5154761Y-6976109D01*
X5154761Y-6976109D02*
X4940476Y-7476109D01*
X47891752Y-7066666D02*
X47910800Y-7085714D01*
X47910800Y-7085714D02*
X47929847Y-7142856D01*
X47929847Y-7142856D02*
X47929847Y-7180952D01*
X47929847Y-7180952D02*
X47910800Y-7238095D01*
X47910800Y-7238095D02*
X47872704Y-7276190D01*
X47872704Y-7276190D02*
X47834609Y-7295237D01*
X47834609Y-7295237D02*
X47758419Y-7314285D01*
X47758419Y-7314285D02*
X47701276Y-7314285D01*
X47701276Y-7314285D02*
X47625085Y-7295237D01*
X47625085Y-7295237D02*
X47586990Y-7276190D01*
X47586990Y-7276190D02*
X47548895Y-7238095D01*
X47548895Y-7238095D02*
X47529847Y-7180952D01*
X47529847Y-7180952D02*
X47529847Y-7142856D01*
X47529847Y-7142856D02*
X47548895Y-7085714D01*
X47548895Y-7085714D02*
X47567942Y-7066666D01*
X47529847Y-6723809D02*
X47529847Y-6799999D01*
X47529847Y-6799999D02*
X47548895Y-6838095D01*
X47548895Y-6838095D02*
X47567942Y-6857142D01*
X47567942Y-6857142D02*
X47625085Y-6895237D01*
X47625085Y-6895237D02*
X47701276Y-6914285D01*
X47701276Y-6914285D02*
X47853657Y-6914285D01*
X47853657Y-6914285D02*
X47891752Y-6895237D01*
X47891752Y-6895237D02*
X47910800Y-6876190D01*
X47910800Y-6876190D02*
X47929847Y-6838095D01*
X47929847Y-6838095D02*
X47929847Y-6761904D01*
X47929847Y-6761904D02*
X47910800Y-6723809D01*
X47910800Y-6723809D02*
X47891752Y-6704761D01*
X47891752Y-6704761D02*
X47853657Y-6685714D01*
X47853657Y-6685714D02*
X47758419Y-6685714D01*
X47758419Y-6685714D02*
X47720323Y-6704761D01*
X47720323Y-6704761D02*
X47701276Y-6723809D01*
X47701276Y-6723809D02*
X47682228Y-6761904D01*
X47682228Y-6761904D02*
X47682228Y-6838095D01*
X47682228Y-6838095D02*
X47701276Y-6876190D01*
X47701276Y-6876190D02*
X47720323Y-6895237D01*
X47720323Y-6895237D02*
X47758419Y-6914285D01*
X22742857Y-14891752D02*
X22723809Y-14910800D01*
X22723809Y-14910800D02*
X22666667Y-14929847D01*
X22666667Y-14929847D02*
X22628571Y-14929847D01*
X22628571Y-14929847D02*
X22571428Y-14910800D01*
X22571428Y-14910800D02*
X22533333Y-14872704D01*
X22533333Y-14872704D02*
X22514286Y-14834609D01*
X22514286Y-14834609D02*
X22495238Y-14758419D01*
X22495238Y-14758419D02*
X22495238Y-14701276D01*
X22495238Y-14701276D02*
X22514286Y-14625085D01*
X22514286Y-14625085D02*
X22533333Y-14586990D01*
X22533333Y-14586990D02*
X22571428Y-14548895D01*
X22571428Y-14548895D02*
X22628571Y-14529847D01*
X22628571Y-14529847D02*
X22666667Y-14529847D01*
X22666667Y-14529847D02*
X22723809Y-14548895D01*
X22723809Y-14548895D02*
X22742857Y-14567942D01*
X23123809Y-14929847D02*
X22895238Y-14929847D01*
X23009524Y-14929847D02*
X23009524Y-14529847D01*
X23009524Y-14529847D02*
X22971428Y-14586990D01*
X22971428Y-14586990D02*
X22933333Y-14625085D01*
X22933333Y-14625085D02*
X22895238Y-14644133D01*
X23371428Y-14529847D02*
X23409523Y-14529847D01*
X23409523Y-14529847D02*
X23447619Y-14548895D01*
X23447619Y-14548895D02*
X23466666Y-14567942D01*
X23466666Y-14567942D02*
X23485714Y-14606038D01*
X23485714Y-14606038D02*
X23504761Y-14682228D01*
X23504761Y-14682228D02*
X23504761Y-14777466D01*
X23504761Y-14777466D02*
X23485714Y-14853657D01*
X23485714Y-14853657D02*
X23466666Y-14891752D01*
X23466666Y-14891752D02*
X23447619Y-14910800D01*
X23447619Y-14910800D02*
X23409523Y-14929847D01*
X23409523Y-14929847D02*
X23371428Y-14929847D01*
X23371428Y-14929847D02*
X23333333Y-14910800D01*
X23333333Y-14910800D02*
X23314285Y-14891752D01*
X23314285Y-14891752D02*
X23295238Y-14853657D01*
X23295238Y-14853657D02*
X23276190Y-14777466D01*
X23276190Y-14777466D02*
X23276190Y-14682228D01*
X23276190Y-14682228D02*
X23295238Y-14606038D01*
X23295238Y-14606038D02*
X23314285Y-14567942D01*
X23314285Y-14567942D02*
X23333333Y-14548895D01*
X23333333Y-14548895D02*
X23371428Y-14529847D01*
X32976109Y-12071428D02*
X32738014Y-12238094D01*
X32976109Y-12357142D02*
X32476109Y-12357142D01*
X32476109Y-12357142D02*
X32476109Y-12166666D01*
X32476109Y-12166666D02*
X32499919Y-12119047D01*
X32499919Y-12119047D02*
X32523728Y-12095237D01*
X32523728Y-12095237D02*
X32571347Y-12071428D01*
X32571347Y-12071428D02*
X32642776Y-12071428D01*
X32642776Y-12071428D02*
X32690395Y-12095237D01*
X32690395Y-12095237D02*
X32714204Y-12119047D01*
X32714204Y-12119047D02*
X32738014Y-12166666D01*
X32738014Y-12166666D02*
X32738014Y-12357142D01*
X32976109Y-11595237D02*
X32976109Y-11880951D01*
X32976109Y-11738094D02*
X32476109Y-11738094D01*
X32476109Y-11738094D02*
X32547538Y-11785713D01*
X32547538Y-11785713D02*
X32595157Y-11833332D01*
X32595157Y-11833332D02*
X32618966Y-11880951D01*
X32476109Y-11166666D02*
X32476109Y-11261904D01*
X32476109Y-11261904D02*
X32499919Y-11309523D01*
X32499919Y-11309523D02*
X32523728Y-11333333D01*
X32523728Y-11333333D02*
X32595157Y-11380952D01*
X32595157Y-11380952D02*
X32690395Y-11404761D01*
X32690395Y-11404761D02*
X32880871Y-11404761D01*
X32880871Y-11404761D02*
X32928490Y-11380952D01*
X32928490Y-11380952D02*
X32952300Y-11357142D01*
X32952300Y-11357142D02*
X32976109Y-11309523D01*
X32976109Y-11309523D02*
X32976109Y-11214285D01*
X32976109Y-11214285D02*
X32952300Y-11166666D01*
X32952300Y-11166666D02*
X32928490Y-11142857D01*
X32928490Y-11142857D02*
X32880871Y-11119047D01*
X32880871Y-11119047D02*
X32761823Y-11119047D01*
X32761823Y-11119047D02*
X32714204Y-11142857D01*
X32714204Y-11142857D02*
X32690395Y-11166666D01*
X32690395Y-11166666D02*
X32666585Y-11214285D01*
X32666585Y-11214285D02*
X32666585Y-11309523D01*
X32666585Y-11309523D02*
X32690395Y-11357142D01*
X32690395Y-11357142D02*
X32714204Y-11380952D01*
X32714204Y-11380952D02*
X32761823Y-11404761D01*
X12476109Y-6833333D02*
X12238014Y-6999999D01*
X12476109Y-7119047D02*
X11976109Y-7119047D01*
X11976109Y-7119047D02*
X11976109Y-6928571D01*
X11976109Y-6928571D02*
X11999919Y-6880952D01*
X11999919Y-6880952D02*
X12023728Y-6857142D01*
X12023728Y-6857142D02*
X12071347Y-6833333D01*
X12071347Y-6833333D02*
X12142776Y-6833333D01*
X12142776Y-6833333D02*
X12190395Y-6857142D01*
X12190395Y-6857142D02*
X12214204Y-6880952D01*
X12214204Y-6880952D02*
X12238014Y-6928571D01*
X12238014Y-6928571D02*
X12238014Y-7119047D01*
X12476109Y-6357142D02*
X12476109Y-6642856D01*
X12476109Y-6499999D02*
X11976109Y-6499999D01*
X11976109Y-6499999D02*
X12047538Y-6547618D01*
X12047538Y-6547618D02*
X12095157Y-6595237D01*
X12095157Y-6595237D02*
X12118966Y-6642856D01*
X34726109Y-12071428D02*
X34488014Y-12238094D01*
X34726109Y-12357142D02*
X34226109Y-12357142D01*
X34226109Y-12357142D02*
X34226109Y-12166666D01*
X34226109Y-12166666D02*
X34249919Y-12119047D01*
X34249919Y-12119047D02*
X34273728Y-12095237D01*
X34273728Y-12095237D02*
X34321347Y-12071428D01*
X34321347Y-12071428D02*
X34392776Y-12071428D01*
X34392776Y-12071428D02*
X34440395Y-12095237D01*
X34440395Y-12095237D02*
X34464204Y-12119047D01*
X34464204Y-12119047D02*
X34488014Y-12166666D01*
X34488014Y-12166666D02*
X34488014Y-12357142D01*
X34726109Y-11595237D02*
X34726109Y-11880951D01*
X34726109Y-11738094D02*
X34226109Y-11738094D01*
X34226109Y-11738094D02*
X34297538Y-11785713D01*
X34297538Y-11785713D02*
X34345157Y-11833332D01*
X34345157Y-11833332D02*
X34368966Y-11880951D01*
X34392776Y-11166666D02*
X34726109Y-11166666D01*
X34202300Y-11285714D02*
X34559442Y-11404761D01*
X34559442Y-11404761D02*
X34559442Y-11095238D01*
X8233333Y-7068633D02*
X8233333Y-6368633D01*
X8233333Y-6368633D02*
X8400000Y-6368633D01*
X8400000Y-6368633D02*
X8500000Y-6401966D01*
X8500000Y-6401966D02*
X8566667Y-6468633D01*
X8566667Y-6468633D02*
X8600000Y-6535300D01*
X8600000Y-6535300D02*
X8633333Y-6668633D01*
X8633333Y-6668633D02*
X8633333Y-6768633D01*
X8633333Y-6768633D02*
X8600000Y-6901966D01*
X8600000Y-6901966D02*
X8566667Y-6968633D01*
X8566667Y-6968633D02*
X8500000Y-7035300D01*
X8500000Y-7035300D02*
X8400000Y-7068633D01*
X8400000Y-7068633D02*
X8233333Y-7068633D01*
X8900000Y-6435300D02*
X8933333Y-6401966D01*
X8933333Y-6401966D02*
X9000000Y-6368633D01*
X9000000Y-6368633D02*
X9166667Y-6368633D01*
X9166667Y-6368633D02*
X9233333Y-6401966D01*
X9233333Y-6401966D02*
X9266667Y-6435300D01*
X9266667Y-6435300D02*
X9300000Y-6501966D01*
X9300000Y-6501966D02*
X9300000Y-6568633D01*
X9300000Y-6568633D02*
X9266667Y-6668633D01*
X9266667Y-6668633D02*
X8866667Y-7068633D01*
X8866667Y-7068633D02*
X9300000Y-7068633D01*
X49391752Y-7066666D02*
X49410800Y-7085714D01*
X49410800Y-7085714D02*
X49429847Y-7142856D01*
X49429847Y-7142856D02*
X49429847Y-7180952D01*
X49429847Y-7180952D02*
X49410800Y-7238095D01*
X49410800Y-7238095D02*
X49372704Y-7276190D01*
X49372704Y-7276190D02*
X49334609Y-7295237D01*
X49334609Y-7295237D02*
X49258419Y-7314285D01*
X49258419Y-7314285D02*
X49201276Y-7314285D01*
X49201276Y-7314285D02*
X49125085Y-7295237D01*
X49125085Y-7295237D02*
X49086990Y-7276190D01*
X49086990Y-7276190D02*
X49048895Y-7238095D01*
X49048895Y-7238095D02*
X49029847Y-7180952D01*
X49029847Y-7180952D02*
X49029847Y-7142856D01*
X49029847Y-7142856D02*
X49048895Y-7085714D01*
X49048895Y-7085714D02*
X49067942Y-7066666D01*
X49029847Y-6704761D02*
X49029847Y-6895237D01*
X49029847Y-6895237D02*
X49220323Y-6914285D01*
X49220323Y-6914285D02*
X49201276Y-6895237D01*
X49201276Y-6895237D02*
X49182228Y-6857142D01*
X49182228Y-6857142D02*
X49182228Y-6761904D01*
X49182228Y-6761904D02*
X49201276Y-6723809D01*
X49201276Y-6723809D02*
X49220323Y-6704761D01*
X49220323Y-6704761D02*
X49258419Y-6685714D01*
X49258419Y-6685714D02*
X49353657Y-6685714D01*
X49353657Y-6685714D02*
X49391752Y-6704761D01*
X49391752Y-6704761D02*
X49410800Y-6723809D01*
X49410800Y-6723809D02*
X49429847Y-6761904D01*
X49429847Y-6761904D02*
X49429847Y-6857142D01*
X49429847Y-6857142D02*
X49410800Y-6895237D01*
X49410800Y-6895237D02*
X49391752Y-6914285D01*
D12*
X23874337Y-10685714D02*
X24602908Y-10685714D01*
X24602908Y-10685714D02*
X24688622Y-10642857D01*
X24688622Y-10642857D02*
X24731480Y-10600000D01*
X24731480Y-10600000D02*
X24774337Y-10514285D01*
X24774337Y-10514285D02*
X24774337Y-10342857D01*
X24774337Y-10342857D02*
X24731480Y-10257142D01*
X24731480Y-10257142D02*
X24688622Y-10214285D01*
X24688622Y-10214285D02*
X24602908Y-10171428D01*
X24602908Y-10171428D02*
X23874337Y-10171428D01*
X24774337Y-9271428D02*
X24774337Y-9785714D01*
X24774337Y-9528571D02*
X23874337Y-9528571D01*
X23874337Y-9528571D02*
X24002908Y-9614285D01*
X24002908Y-9614285D02*
X24088622Y-9700000D01*
X24088622Y-9700000D02*
X24131480Y-9785714D01*
D10*
X18166666Y-7226109D02*
X18000000Y-6988014D01*
X17880952Y-7226109D02*
X17880952Y-6726109D01*
X17880952Y-6726109D02*
X18071428Y-6726109D01*
X18071428Y-6726109D02*
X18119047Y-6749919D01*
X18119047Y-6749919D02*
X18142857Y-6773728D01*
X18142857Y-6773728D02*
X18166666Y-6821347D01*
X18166666Y-6821347D02*
X18166666Y-6892776D01*
X18166666Y-6892776D02*
X18142857Y-6940395D01*
X18142857Y-6940395D02*
X18119047Y-6964204D01*
X18119047Y-6964204D02*
X18071428Y-6988014D01*
X18071428Y-6988014D02*
X17880952Y-6988014D01*
X18333333Y-6726109D02*
X18666666Y-6726109D01*
X18666666Y-6726109D02*
X18452381Y-7226109D01*
X13933333Y-7141752D02*
X13914285Y-7160800D01*
X13914285Y-7160800D02*
X13857143Y-7179847D01*
X13857143Y-7179847D02*
X13819047Y-7179847D01*
X13819047Y-7179847D02*
X13761904Y-7160800D01*
X13761904Y-7160800D02*
X13723809Y-7122704D01*
X13723809Y-7122704D02*
X13704762Y-7084609D01*
X13704762Y-7084609D02*
X13685714Y-7008419D01*
X13685714Y-7008419D02*
X13685714Y-6951276D01*
X13685714Y-6951276D02*
X13704762Y-6875085D01*
X13704762Y-6875085D02*
X13723809Y-6836990D01*
X13723809Y-6836990D02*
X13761904Y-6798895D01*
X13761904Y-6798895D02*
X13819047Y-6779847D01*
X13819047Y-6779847D02*
X13857143Y-6779847D01*
X13857143Y-6779847D02*
X13914285Y-6798895D01*
X13914285Y-6798895D02*
X13933333Y-6817942D01*
X14085714Y-6817942D02*
X14104762Y-6798895D01*
X14104762Y-6798895D02*
X14142857Y-6779847D01*
X14142857Y-6779847D02*
X14238095Y-6779847D01*
X14238095Y-6779847D02*
X14276190Y-6798895D01*
X14276190Y-6798895D02*
X14295238Y-6817942D01*
X14295238Y-6817942D02*
X14314285Y-6856038D01*
X14314285Y-6856038D02*
X14314285Y-6894133D01*
X14314285Y-6894133D02*
X14295238Y-6951276D01*
X14295238Y-6951276D02*
X14066666Y-7179847D01*
X14066666Y-7179847D02*
X14314285Y-7179847D01*
X12476109Y-13333333D02*
X12238014Y-13499999D01*
X12476109Y-13619047D02*
X11976109Y-13619047D01*
X11976109Y-13619047D02*
X11976109Y-13428571D01*
X11976109Y-13428571D02*
X11999919Y-13380952D01*
X11999919Y-13380952D02*
X12023728Y-13357142D01*
X12023728Y-13357142D02*
X12071347Y-13333333D01*
X12071347Y-13333333D02*
X12142776Y-13333333D01*
X12142776Y-13333333D02*
X12190395Y-13357142D01*
X12190395Y-13357142D02*
X12214204Y-13380952D01*
X12214204Y-13380952D02*
X12238014Y-13428571D01*
X12238014Y-13428571D02*
X12238014Y-13619047D01*
X12023728Y-13142856D02*
X11999919Y-13119047D01*
X11999919Y-13119047D02*
X11976109Y-13071428D01*
X11976109Y-13071428D02*
X11976109Y-12952380D01*
X11976109Y-12952380D02*
X11999919Y-12904761D01*
X11999919Y-12904761D02*
X12023728Y-12880952D01*
X12023728Y-12880952D02*
X12071347Y-12857142D01*
X12071347Y-12857142D02*
X12118966Y-12857142D01*
X12118966Y-12857142D02*
X12190395Y-12880952D01*
X12190395Y-12880952D02*
X12476109Y-13166666D01*
X12476109Y-13166666D02*
X12476109Y-12857142D01*
X15976109Y-6833333D02*
X15738014Y-6999999D01*
X15976109Y-7119047D02*
X15476109Y-7119047D01*
X15476109Y-7119047D02*
X15476109Y-6928571D01*
X15476109Y-6928571D02*
X15499919Y-6880952D01*
X15499919Y-6880952D02*
X15523728Y-6857142D01*
X15523728Y-6857142D02*
X15571347Y-6833333D01*
X15571347Y-6833333D02*
X15642776Y-6833333D01*
X15642776Y-6833333D02*
X15690395Y-6857142D01*
X15690395Y-6857142D02*
X15714204Y-6880952D01*
X15714204Y-6880952D02*
X15738014Y-6928571D01*
X15738014Y-6928571D02*
X15738014Y-7119047D01*
X15476109Y-6380952D02*
X15476109Y-6619047D01*
X15476109Y-6619047D02*
X15714204Y-6642856D01*
X15714204Y-6642856D02*
X15690395Y-6619047D01*
X15690395Y-6619047D02*
X15666585Y-6571428D01*
X15666585Y-6571428D02*
X15666585Y-6452380D01*
X15666585Y-6452380D02*
X15690395Y-6404761D01*
X15690395Y-6404761D02*
X15714204Y-6380952D01*
X15714204Y-6380952D02*
X15761823Y-6357142D01*
X15761823Y-6357142D02*
X15880871Y-6357142D01*
X15880871Y-6357142D02*
X15928490Y-6380952D01*
X15928490Y-6380952D02*
X15952300Y-6404761D01*
X15952300Y-6404761D02*
X15976109Y-6452380D01*
X15976109Y-6452380D02*
X15976109Y-6571428D01*
X15976109Y-6571428D02*
X15952300Y-6619047D01*
X15952300Y-6619047D02*
X15928490Y-6642856D01*
X51226109Y-12321428D02*
X50988014Y-12488094D01*
X51226109Y-12607142D02*
X50726109Y-12607142D01*
X50726109Y-12607142D02*
X50726109Y-12416666D01*
X50726109Y-12416666D02*
X50749919Y-12369047D01*
X50749919Y-12369047D02*
X50773728Y-12345237D01*
X50773728Y-12345237D02*
X50821347Y-12321428D01*
X50821347Y-12321428D02*
X50892776Y-12321428D01*
X50892776Y-12321428D02*
X50940395Y-12345237D01*
X50940395Y-12345237D02*
X50964204Y-12369047D01*
X50964204Y-12369047D02*
X50988014Y-12416666D01*
X50988014Y-12416666D02*
X50988014Y-12607142D01*
X51226109Y-11845237D02*
X51226109Y-12130951D01*
X51226109Y-11988094D02*
X50726109Y-11988094D01*
X50726109Y-11988094D02*
X50797538Y-12035713D01*
X50797538Y-12035713D02*
X50845157Y-12083332D01*
X50845157Y-12083332D02*
X50868966Y-12130951D01*
X50940395Y-11559523D02*
X50916585Y-11607142D01*
X50916585Y-11607142D02*
X50892776Y-11630952D01*
X50892776Y-11630952D02*
X50845157Y-11654761D01*
X50845157Y-11654761D02*
X50821347Y-11654761D01*
X50821347Y-11654761D02*
X50773728Y-11630952D01*
X50773728Y-11630952D02*
X50749919Y-11607142D01*
X50749919Y-11607142D02*
X50726109Y-11559523D01*
X50726109Y-11559523D02*
X50726109Y-11464285D01*
X50726109Y-11464285D02*
X50749919Y-11416666D01*
X50749919Y-11416666D02*
X50773728Y-11392857D01*
X50773728Y-11392857D02*
X50821347Y-11369047D01*
X50821347Y-11369047D02*
X50845157Y-11369047D01*
X50845157Y-11369047D02*
X50892776Y-11392857D01*
X50892776Y-11392857D02*
X50916585Y-11416666D01*
X50916585Y-11416666D02*
X50940395Y-11464285D01*
X50940395Y-11464285D02*
X50940395Y-11559523D01*
X50940395Y-11559523D02*
X50964204Y-11607142D01*
X50964204Y-11607142D02*
X50988014Y-11630952D01*
X50988014Y-11630952D02*
X51035633Y-11654761D01*
X51035633Y-11654761D02*
X51130871Y-11654761D01*
X51130871Y-11654761D02*
X51178490Y-11630952D01*
X51178490Y-11630952D02*
X51202300Y-11607142D01*
X51202300Y-11607142D02*
X51226109Y-11559523D01*
X51226109Y-11559523D02*
X51226109Y-11464285D01*
X51226109Y-11464285D02*
X51202300Y-11416666D01*
X51202300Y-11416666D02*
X51178490Y-11392857D01*
X51178490Y-11392857D02*
X51130871Y-11369047D01*
X51130871Y-11369047D02*
X51035633Y-11369047D01*
X51035633Y-11369047D02*
X50988014Y-11392857D01*
X50988014Y-11392857D02*
X50964204Y-11416666D01*
X50964204Y-11416666D02*
X50940395Y-11464285D01*
X3928571Y-12976109D02*
X3761905Y-12738014D01*
X3642857Y-12976109D02*
X3642857Y-12476109D01*
X3642857Y-12476109D02*
X3833333Y-12476109D01*
X3833333Y-12476109D02*
X3880952Y-12499919D01*
X3880952Y-12499919D02*
X3904762Y-12523728D01*
X3904762Y-12523728D02*
X3928571Y-12571347D01*
X3928571Y-12571347D02*
X3928571Y-12642776D01*
X3928571Y-12642776D02*
X3904762Y-12690395D01*
X3904762Y-12690395D02*
X3880952Y-12714204D01*
X3880952Y-12714204D02*
X3833333Y-12738014D01*
X3833333Y-12738014D02*
X3642857Y-12738014D01*
X4404762Y-12976109D02*
X4119048Y-12976109D01*
X4261905Y-12976109D02*
X4261905Y-12476109D01*
X4261905Y-12476109D02*
X4214286Y-12547538D01*
X4214286Y-12547538D02*
X4166667Y-12595157D01*
X4166667Y-12595157D02*
X4119048Y-12618966D01*
X4642857Y-12976109D02*
X4738095Y-12976109D01*
X4738095Y-12976109D02*
X4785714Y-12952300D01*
X4785714Y-12952300D02*
X4809523Y-12928490D01*
X4809523Y-12928490D02*
X4857142Y-12857061D01*
X4857142Y-12857061D02*
X4880952Y-12761823D01*
X4880952Y-12761823D02*
X4880952Y-12571347D01*
X4880952Y-12571347D02*
X4857142Y-12523728D01*
X4857142Y-12523728D02*
X4833333Y-12499919D01*
X4833333Y-12499919D02*
X4785714Y-12476109D01*
X4785714Y-12476109D02*
X4690476Y-12476109D01*
X4690476Y-12476109D02*
X4642857Y-12499919D01*
X4642857Y-12499919D02*
X4619047Y-12523728D01*
X4619047Y-12523728D02*
X4595238Y-12571347D01*
X4595238Y-12571347D02*
X4595238Y-12690395D01*
X4595238Y-12690395D02*
X4619047Y-12738014D01*
X4619047Y-12738014D02*
X4642857Y-12761823D01*
X4642857Y-12761823D02*
X4690476Y-12785633D01*
X4690476Y-12785633D02*
X4785714Y-12785633D01*
X4785714Y-12785633D02*
X4833333Y-12761823D01*
X4833333Y-12761823D02*
X4857142Y-12738014D01*
X4857142Y-12738014D02*
X4880952Y-12690395D01*
X18166666Y-9226109D02*
X18000000Y-8988014D01*
X17880952Y-9226109D02*
X17880952Y-8726109D01*
X17880952Y-8726109D02*
X18071428Y-8726109D01*
X18071428Y-8726109D02*
X18119047Y-8749919D01*
X18119047Y-8749919D02*
X18142857Y-8773728D01*
X18142857Y-8773728D02*
X18166666Y-8821347D01*
X18166666Y-8821347D02*
X18166666Y-8892776D01*
X18166666Y-8892776D02*
X18142857Y-8940395D01*
X18142857Y-8940395D02*
X18119047Y-8964204D01*
X18119047Y-8964204D02*
X18071428Y-8988014D01*
X18071428Y-8988014D02*
X17880952Y-8988014D01*
X18404762Y-9226109D02*
X18500000Y-9226109D01*
X18500000Y-9226109D02*
X18547619Y-9202300D01*
X18547619Y-9202300D02*
X18571428Y-9178490D01*
X18571428Y-9178490D02*
X18619047Y-9107061D01*
X18619047Y-9107061D02*
X18642857Y-9011823D01*
X18642857Y-9011823D02*
X18642857Y-8821347D01*
X18642857Y-8821347D02*
X18619047Y-8773728D01*
X18619047Y-8773728D02*
X18595238Y-8749919D01*
X18595238Y-8749919D02*
X18547619Y-8726109D01*
X18547619Y-8726109D02*
X18452381Y-8726109D01*
X18452381Y-8726109D02*
X18404762Y-8749919D01*
X18404762Y-8749919D02*
X18380952Y-8773728D01*
X18380952Y-8773728D02*
X18357143Y-8821347D01*
X18357143Y-8821347D02*
X18357143Y-8940395D01*
X18357143Y-8940395D02*
X18380952Y-8988014D01*
X18380952Y-8988014D02*
X18404762Y-9011823D01*
X18404762Y-9011823D02*
X18452381Y-9035633D01*
X18452381Y-9035633D02*
X18547619Y-9035633D01*
X18547619Y-9035633D02*
X18595238Y-9011823D01*
X18595238Y-9011823D02*
X18619047Y-8988014D01*
X18619047Y-8988014D02*
X18642857Y-8940395D01*
X15976109Y-13333333D02*
X15738014Y-13499999D01*
X15976109Y-13619047D02*
X15476109Y-13619047D01*
X15476109Y-13619047D02*
X15476109Y-13428571D01*
X15476109Y-13428571D02*
X15499919Y-13380952D01*
X15499919Y-13380952D02*
X15523728Y-13357142D01*
X15523728Y-13357142D02*
X15571347Y-13333333D01*
X15571347Y-13333333D02*
X15642776Y-13333333D01*
X15642776Y-13333333D02*
X15690395Y-13357142D01*
X15690395Y-13357142D02*
X15714204Y-13380952D01*
X15714204Y-13380952D02*
X15738014Y-13428571D01*
X15738014Y-13428571D02*
X15738014Y-13619047D01*
X15476109Y-12904761D02*
X15476109Y-12999999D01*
X15476109Y-12999999D02*
X15499919Y-13047618D01*
X15499919Y-13047618D02*
X15523728Y-13071428D01*
X15523728Y-13071428D02*
X15595157Y-13119047D01*
X15595157Y-13119047D02*
X15690395Y-13142856D01*
X15690395Y-13142856D02*
X15880871Y-13142856D01*
X15880871Y-13142856D02*
X15928490Y-13119047D01*
X15928490Y-13119047D02*
X15952300Y-13095237D01*
X15952300Y-13095237D02*
X15976109Y-13047618D01*
X15976109Y-13047618D02*
X15976109Y-12952380D01*
X15976109Y-12952380D02*
X15952300Y-12904761D01*
X15952300Y-12904761D02*
X15928490Y-12880952D01*
X15928490Y-12880952D02*
X15880871Y-12857142D01*
X15880871Y-12857142D02*
X15761823Y-12857142D01*
X15761823Y-12857142D02*
X15714204Y-12880952D01*
X15714204Y-12880952D02*
X15690395Y-12904761D01*
X15690395Y-12904761D02*
X15666585Y-12952380D01*
X15666585Y-12952380D02*
X15666585Y-13047618D01*
X15666585Y-13047618D02*
X15690395Y-13095237D01*
X15690395Y-13095237D02*
X15714204Y-13119047D01*
X15714204Y-13119047D02*
X15761823Y-13142856D01*
D11*
X40538095Y-9454819D02*
X40538095Y-10264342D01*
X40538095Y-10264342D02*
X40585714Y-10359580D01*
X40585714Y-10359580D02*
X40633333Y-10407200D01*
X40633333Y-10407200D02*
X40728571Y-10454819D01*
X40728571Y-10454819D02*
X40919047Y-10454819D01*
X40919047Y-10454819D02*
X41014285Y-10407200D01*
X41014285Y-10407200D02*
X41061904Y-10359580D01*
X41061904Y-10359580D02*
X41109523Y-10264342D01*
X41109523Y-10264342D02*
X41109523Y-9454819D01*
X41538095Y-9550057D02*
X41585714Y-9502438D01*
X41585714Y-9502438D02*
X41680952Y-9454819D01*
X41680952Y-9454819D02*
X41919047Y-9454819D01*
X41919047Y-9454819D02*
X42014285Y-9502438D01*
X42014285Y-9502438D02*
X42061904Y-9550057D01*
X42061904Y-9550057D02*
X42109523Y-9645295D01*
X42109523Y-9645295D02*
X42109523Y-9740533D01*
X42109523Y-9740533D02*
X42061904Y-9883390D01*
X42061904Y-9883390D02*
X41490476Y-10454819D01*
X41490476Y-10454819D02*
X42109523Y-10454819D01*
D10*
X54233333Y-12318633D02*
X54233333Y-11618633D01*
X54233333Y-11618633D02*
X54400000Y-11618633D01*
X54400000Y-11618633D02*
X54500000Y-11651966D01*
X54500000Y-11651966D02*
X54566667Y-11718633D01*
X54566667Y-11718633D02*
X54600000Y-11785300D01*
X54600000Y-11785300D02*
X54633333Y-11918633D01*
X54633333Y-11918633D02*
X54633333Y-12018633D01*
X54633333Y-12018633D02*
X54600000Y-12151966D01*
X54600000Y-12151966D02*
X54566667Y-12218633D01*
X54566667Y-12218633D02*
X54500000Y-12285300D01*
X54500000Y-12285300D02*
X54400000Y-12318633D01*
X54400000Y-12318633D02*
X54233333Y-12318633D01*
X54866667Y-11618633D02*
X55300000Y-11618633D01*
X55300000Y-11618633D02*
X55066667Y-11885300D01*
X55066667Y-11885300D02*
X55166667Y-11885300D01*
X55166667Y-11885300D02*
X55233333Y-11918633D01*
X55233333Y-11918633D02*
X55266667Y-11951966D01*
X55266667Y-11951966D02*
X55300000Y-12018633D01*
X55300000Y-12018633D02*
X55300000Y-12185300D01*
X55300000Y-12185300D02*
X55266667Y-12251966D01*
X55266667Y-12251966D02*
X55233333Y-12285300D01*
X55233333Y-12285300D02*
X55166667Y-12318633D01*
X55166667Y-12318633D02*
X54966667Y-12318633D01*
X54966667Y-12318633D02*
X54900000Y-12285300D01*
X54900000Y-12285300D02*
X54866667Y-12251966D01*
X25183333Y-14891752D02*
X25164285Y-14910800D01*
X25164285Y-14910800D02*
X25107143Y-14929847D01*
X25107143Y-14929847D02*
X25069047Y-14929847D01*
X25069047Y-14929847D02*
X25011904Y-14910800D01*
X25011904Y-14910800D02*
X24973809Y-14872704D01*
X24973809Y-14872704D02*
X24954762Y-14834609D01*
X24954762Y-14834609D02*
X24935714Y-14758419D01*
X24935714Y-14758419D02*
X24935714Y-14701276D01*
X24935714Y-14701276D02*
X24954762Y-14625085D01*
X24954762Y-14625085D02*
X24973809Y-14586990D01*
X24973809Y-14586990D02*
X25011904Y-14548895D01*
X25011904Y-14548895D02*
X25069047Y-14529847D01*
X25069047Y-14529847D02*
X25107143Y-14529847D01*
X25107143Y-14529847D02*
X25164285Y-14548895D01*
X25164285Y-14548895D02*
X25183333Y-14567942D01*
X25316666Y-14529847D02*
X25583333Y-14529847D01*
X25583333Y-14529847D02*
X25411904Y-14929847D01*
X30976109Y-12071428D02*
X30738014Y-12238094D01*
X30976109Y-12357142D02*
X30476109Y-12357142D01*
X30476109Y-12357142D02*
X30476109Y-12166666D01*
X30476109Y-12166666D02*
X30499919Y-12119047D01*
X30499919Y-12119047D02*
X30523728Y-12095237D01*
X30523728Y-12095237D02*
X30571347Y-12071428D01*
X30571347Y-12071428D02*
X30642776Y-12071428D01*
X30642776Y-12071428D02*
X30690395Y-12095237D01*
X30690395Y-12095237D02*
X30714204Y-12119047D01*
X30714204Y-12119047D02*
X30738014Y-12166666D01*
X30738014Y-12166666D02*
X30738014Y-12357142D01*
X30976109Y-11595237D02*
X30976109Y-11880951D01*
X30976109Y-11738094D02*
X30476109Y-11738094D01*
X30476109Y-11738094D02*
X30547538Y-11785713D01*
X30547538Y-11785713D02*
X30595157Y-11833332D01*
X30595157Y-11833332D02*
X30618966Y-11880951D01*
X30976109Y-11119047D02*
X30976109Y-11404761D01*
X30976109Y-11261904D02*
X30476109Y-11261904D01*
X30476109Y-11261904D02*
X30547538Y-11309523D01*
X30547538Y-11309523D02*
X30595157Y-11357142D01*
X30595157Y-11357142D02*
X30618966Y-11404761D01*
X25183333Y-5391752D02*
X25164285Y-5410800D01*
X25164285Y-5410800D02*
X25107143Y-5429847D01*
X25107143Y-5429847D02*
X25069047Y-5429847D01*
X25069047Y-5429847D02*
X25011904Y-5410800D01*
X25011904Y-5410800D02*
X24973809Y-5372704D01*
X24973809Y-5372704D02*
X24954762Y-5334609D01*
X24954762Y-5334609D02*
X24935714Y-5258419D01*
X24935714Y-5258419D02*
X24935714Y-5201276D01*
X24935714Y-5201276D02*
X24954762Y-5125085D01*
X24954762Y-5125085D02*
X24973809Y-5086990D01*
X24973809Y-5086990D02*
X25011904Y-5048895D01*
X25011904Y-5048895D02*
X25069047Y-5029847D01*
X25069047Y-5029847D02*
X25107143Y-5029847D01*
X25107143Y-5029847D02*
X25164285Y-5048895D01*
X25164285Y-5048895D02*
X25183333Y-5067942D01*
X25316666Y-5029847D02*
X25564285Y-5029847D01*
X25564285Y-5029847D02*
X25430952Y-5182228D01*
X25430952Y-5182228D02*
X25488095Y-5182228D01*
X25488095Y-5182228D02*
X25526190Y-5201276D01*
X25526190Y-5201276D02*
X25545238Y-5220323D01*
X25545238Y-5220323D02*
X25564285Y-5258419D01*
X25564285Y-5258419D02*
X25564285Y-5353657D01*
X25564285Y-5353657D02*
X25545238Y-5391752D01*
X25545238Y-5391752D02*
X25526190Y-5410800D01*
X25526190Y-5410800D02*
X25488095Y-5429847D01*
X25488095Y-5429847D02*
X25373809Y-5429847D01*
X25373809Y-5429847D02*
X25335714Y-5410800D01*
X25335714Y-5410800D02*
X25316666Y-5391752D01*
D11*
X53211905Y-8704819D02*
X53211905Y-7704819D01*
X53211905Y-7704819D02*
X53450000Y-7704819D01*
X53450000Y-7704819D02*
X53592857Y-7752438D01*
X53592857Y-7752438D02*
X53688095Y-7847676D01*
X53688095Y-7847676D02*
X53735714Y-7942914D01*
X53735714Y-7942914D02*
X53783333Y-8133390D01*
X53783333Y-8133390D02*
X53783333Y-8276247D01*
X53783333Y-8276247D02*
X53735714Y-8466723D01*
X53735714Y-8466723D02*
X53688095Y-8561961D01*
X53688095Y-8561961D02*
X53592857Y-8657200D01*
X53592857Y-8657200D02*
X53450000Y-8704819D01*
X53450000Y-8704819D02*
X53211905Y-8704819D01*
X54735714Y-8704819D02*
X54164286Y-8704819D01*
X54450000Y-8704819D02*
X54450000Y-7704819D01*
X54450000Y-7704819D02*
X54354762Y-7847676D01*
X54354762Y-7847676D02*
X54259524Y-7942914D01*
X54259524Y-7942914D02*
X54164286Y-7990533D01*
D13*
X48751706Y-10616666D02*
X48785040Y-10649999D01*
X48785040Y-10649999D02*
X48818373Y-10749999D01*
X48818373Y-10749999D02*
X48818373Y-10816666D01*
X48818373Y-10816666D02*
X48785040Y-10916666D01*
X48785040Y-10916666D02*
X48718373Y-10983333D01*
X48718373Y-10983333D02*
X48651706Y-11016666D01*
X48651706Y-11016666D02*
X48518373Y-11049999D01*
X48518373Y-11049999D02*
X48418373Y-11049999D01*
X48418373Y-11049999D02*
X48285040Y-11016666D01*
X48285040Y-11016666D02*
X48218373Y-10983333D01*
X48218373Y-10983333D02*
X48151706Y-10916666D01*
X48151706Y-10916666D02*
X48118373Y-10816666D01*
X48118373Y-10816666D02*
X48118373Y-10749999D01*
X48118373Y-10749999D02*
X48151706Y-10649999D01*
X48151706Y-10649999D02*
X48185040Y-10616666D01*
X48351706Y-10016666D02*
X48818373Y-10016666D01*
X48085040Y-10183333D02*
X48585040Y-10349999D01*
X48585040Y-10349999D02*
X48585040Y-9916666D01*
D10*
%TO.C,C9*%
X33500000Y-6400000D02*
X32500000Y-6400000D01*
X33500000Y-5600000D02*
X32500000Y-5600000D01*
%TO.C,R10*%
X17050000Y-10600000D02*
X17250000Y-10600000D01*
X17050000Y-11400000D02*
X17050000Y-10600000D01*
X17050000Y-11400000D02*
X17250000Y-11400000D01*
X19250000Y-10600000D02*
X19450000Y-10600000D01*
X19250000Y-11400000D02*
X19450000Y-11400000D01*
X19450000Y-10600000D02*
X19450000Y-11400000D01*
%TO.C,R8*%
X17050000Y-12600000D02*
X17250000Y-12600000D01*
X17050000Y-13400000D02*
X17050000Y-12600000D01*
X17050000Y-13400000D02*
X17250000Y-13400000D01*
X19250000Y-12600000D02*
X19450000Y-12600000D01*
X19250000Y-13400000D02*
X19450000Y-13400000D01*
X19450000Y-12600000D02*
X19450000Y-13400000D01*
D14*
%TO.C,J1*%
X62800000Y-14000000D02*
X62800000Y-13500000D01*
X63300000Y-14000000D02*
X62800000Y-14000000D01*
X57950000Y-13500000D02*
X57950000Y-6500000D01*
X59600000Y-13500000D02*
X59600000Y-6500000D01*
X62800000Y-13500000D02*
X57950000Y-13500000D01*
X63300000Y-13500000D02*
X63300000Y-14000000D01*
X63400000Y-13500000D02*
X63400000Y-6500000D01*
X65050000Y-13500000D02*
X63300000Y-13500000D01*
X65050000Y-13500000D02*
X65050000Y-6500000D01*
X64700000Y-13000000D02*
X64700000Y-10500000D01*
X65000000Y-13000000D02*
X64700000Y-13000000D01*
X62200000Y-12950000D02*
X60450000Y-10800000D01*
X62550000Y-12700000D02*
X60800000Y-10550000D01*
X64700000Y-10500000D02*
X65000000Y-10500000D01*
X64700000Y-9500000D02*
X64700000Y-7000000D01*
X65000000Y-9500000D02*
X64700000Y-9500000D01*
X62200000Y-9450000D02*
X60450000Y-7300000D01*
X62550000Y-9200000D02*
X60800000Y-7050000D01*
X64700000Y-7000000D02*
X65000000Y-7000000D01*
X58450000Y-6500000D02*
X57950000Y-6500000D01*
X58450000Y-6500000D02*
X58450000Y-6000000D01*
X65050000Y-6500000D02*
X58950000Y-6500000D01*
X58450000Y-6000000D02*
X58950000Y-6000000D01*
X58950000Y-6000000D02*
X58950000Y-6500000D01*
X62950000Y-11750000D02*
G75*
G03*
X60050000Y-11750000I-1450000J0D01*
G01*
X60050000Y-11750000D02*
G75*
G03*
X62950000Y-11750000I1450000J0D01*
G01*
X62950000Y-8250000D02*
G75*
G03*
X60050000Y-8250000I-1450000J0D01*
G01*
X60050000Y-8250000D02*
G75*
G03*
X62950000Y-8250000I1450000J0D01*
G01*
D10*
%TO.C,R15*%
X33150000Y-7050000D02*
X33150000Y-7250000D01*
X32350000Y-7050000D02*
X33150000Y-7050000D01*
X32350000Y-7050000D02*
X32350000Y-7250000D01*
X33150000Y-9250000D02*
X33150000Y-9450000D01*
X32350000Y-9250000D02*
X32350000Y-9450000D01*
X33150000Y-9450000D02*
X32350000Y-9450000D01*
%TO.C,D4*%
X6700000Y-12650000D02*
X6700000Y-13850000D01*
X6700000Y-12650000D02*
X7000000Y-12650000D01*
X6700000Y-12850000D02*
X7000000Y-12650000D01*
X6700000Y-13650000D02*
X7000000Y-13850000D01*
X6700000Y-13850000D02*
X7000000Y-13850000D01*
X10000000Y-12650000D02*
X10300000Y-12650000D01*
X10300000Y-12650000D02*
X10300000Y-13850000D01*
X10300000Y-13850000D02*
X10000000Y-13850000D01*
%TO.C,R13*%
X34900000Y-7050000D02*
X34900000Y-7250000D01*
X34100000Y-7050000D02*
X34900000Y-7050000D01*
X34100000Y-7050000D02*
X34100000Y-7250000D01*
X34900000Y-9250000D02*
X34900000Y-9450000D01*
X34100000Y-9250000D02*
X34100000Y-9450000D01*
X34900000Y-9450000D02*
X34100000Y-9450000D01*
%TO.C,R12*%
X30350000Y-9450000D02*
X30350000Y-9250000D01*
X31150000Y-9450000D02*
X30350000Y-9450000D01*
X31150000Y-9450000D02*
X31150000Y-9250000D01*
X30350000Y-7250000D02*
X30350000Y-7050000D01*
X31150000Y-7250000D02*
X31150000Y-7050000D01*
X30350000Y-7050000D02*
X31150000Y-7050000D01*
%TO.C,R4*%
X16150000Y-8800000D02*
X16150000Y-9000000D01*
X15350000Y-8800000D02*
X16150000Y-8800000D01*
X15350000Y-8800000D02*
X15350000Y-9000000D01*
X16150000Y-11000000D02*
X16150000Y-11200000D01*
X15350000Y-11000000D02*
X15350000Y-11200000D01*
X16150000Y-11200000D02*
X15350000Y-11200000D01*
%TO.C,C1*%
X13500000Y-8600000D02*
X14500000Y-8600000D01*
X13500000Y-9400000D02*
X14500000Y-9400000D01*
%TO.C,R3*%
X12650000Y-8800000D02*
X12650000Y-9000000D01*
X11850000Y-8800000D02*
X12650000Y-8800000D01*
X11850000Y-8800000D02*
X11850000Y-9000000D01*
X12650000Y-11000000D02*
X12650000Y-11200000D01*
X11850000Y-11000000D02*
X11850000Y-11200000D01*
X12650000Y-11200000D02*
X11850000Y-11200000D01*
%TO.C,C8*%
X29000000Y-4850000D02*
X30000000Y-4850000D01*
X29000000Y-5650000D02*
X30000000Y-5650000D01*
%TO.C,R17*%
X3300000Y-6850000D02*
X3500000Y-6850000D01*
X3300000Y-7650000D02*
X3300000Y-6850000D01*
X3300000Y-7650000D02*
X3500000Y-7650000D01*
X5500000Y-6850000D02*
X5700000Y-6850000D01*
X5500000Y-7650000D02*
X5700000Y-7650000D01*
X5700000Y-6850000D02*
X5700000Y-7650000D01*
%TO.C,C6*%
X47350000Y-7500000D02*
X47350000Y-6500000D01*
X48150000Y-7500000D02*
X48150000Y-6500000D01*
%TO.C,C10*%
X23500000Y-15150000D02*
X22500000Y-15150000D01*
X23500000Y-14350000D02*
X22500000Y-14350000D01*
%TO.C,R16*%
X33150000Y-10550000D02*
X33150000Y-10750000D01*
X32350000Y-10550000D02*
X33150000Y-10550000D01*
X32350000Y-10550000D02*
X32350000Y-10750000D01*
X33150000Y-12750000D02*
X33150000Y-12950000D01*
X32350000Y-12750000D02*
X32350000Y-12950000D01*
X33150000Y-12950000D02*
X32350000Y-12950000D01*
%TO.C,R1*%
X12650000Y-5550000D02*
X12650000Y-5750000D01*
X11850000Y-5550000D02*
X12650000Y-5550000D01*
X11850000Y-5550000D02*
X11850000Y-5750000D01*
X12650000Y-7750000D02*
X12650000Y-7950000D01*
X11850000Y-7750000D02*
X11850000Y-7950000D01*
X12650000Y-7950000D02*
X11850000Y-7950000D01*
%TO.C,R14*%
X34900000Y-10550000D02*
X34900000Y-10750000D01*
X34100000Y-10550000D02*
X34900000Y-10550000D01*
X34100000Y-10550000D02*
X34100000Y-10750000D01*
X34900000Y-12750000D02*
X34900000Y-12950000D01*
X34100000Y-12750000D02*
X34100000Y-12950000D01*
X34900000Y-12950000D02*
X34100000Y-12950000D01*
%TO.C,D2*%
X6950000Y-6150000D02*
X6950000Y-7350000D01*
X6950000Y-6150000D02*
X7250000Y-6150000D01*
X6950000Y-6350000D02*
X7250000Y-6150000D01*
X6950000Y-7150000D02*
X7250000Y-7350000D01*
X6950000Y-7350000D02*
X7250000Y-7350000D01*
X10250000Y-6150000D02*
X10550000Y-6150000D01*
X10550000Y-6150000D02*
X10550000Y-7350000D01*
X10550000Y-7350000D02*
X10250000Y-7350000D01*
%TO.C,C5*%
X48850000Y-7500000D02*
X48850000Y-6500000D01*
X49650000Y-7500000D02*
X49650000Y-6500000D01*
D11*
%TO.C,U1*%
X28315000Y-8050000D02*
X29315000Y-9050000D01*
X20685000Y-8050000D02*
X28315000Y-8050000D01*
X29315000Y-9050000D02*
X29315000Y-11950000D01*
X29315000Y-11950000D02*
X20685000Y-11950000D01*
X20685000Y-11950000D02*
X20685000Y-8050000D01*
D10*
%TO.C,R7*%
X17050000Y-6600000D02*
X17250000Y-6600000D01*
X17050000Y-7400000D02*
X17050000Y-6600000D01*
X17050000Y-7400000D02*
X17250000Y-7400000D01*
X19250000Y-6600000D02*
X19450000Y-6600000D01*
X19250000Y-7400000D02*
X19450000Y-7400000D01*
X19450000Y-6600000D02*
X19450000Y-7400000D01*
%TO.C,C2*%
X14500000Y-7400000D02*
X13500000Y-7400000D01*
X14500000Y-6600000D02*
X13500000Y-6600000D01*
%TO.C,R2*%
X12650000Y-12050000D02*
X12650000Y-12250000D01*
X11850000Y-12050000D02*
X12650000Y-12050000D01*
X11850000Y-12050000D02*
X11850000Y-12250000D01*
X12650000Y-14250000D02*
X12650000Y-14450000D01*
X11850000Y-14250000D02*
X11850000Y-14450000D01*
X12650000Y-14450000D02*
X11850000Y-14450000D01*
%TO.C,R5*%
X16150000Y-5550000D02*
X16150000Y-5750000D01*
X15350000Y-5550000D02*
X16150000Y-5550000D01*
X15350000Y-5550000D02*
X15350000Y-5750000D01*
X16150000Y-7750000D02*
X16150000Y-7950000D01*
X15350000Y-7750000D02*
X15350000Y-7950000D01*
X16150000Y-7950000D02*
X15350000Y-7950000D01*
%TO.C,R18*%
X50600000Y-13200000D02*
X50600000Y-13000000D01*
X51400000Y-13200000D02*
X50600000Y-13200000D01*
X51400000Y-13200000D02*
X51400000Y-13000000D01*
X50600000Y-11000000D02*
X50600000Y-10800000D01*
X51400000Y-11000000D02*
X51400000Y-10800000D01*
X50600000Y-10800000D02*
X51400000Y-10800000D01*
%TO.C,R19*%
X3050000Y-12350000D02*
X3250000Y-12350000D01*
X3050000Y-13150000D02*
X3050000Y-12350000D01*
X3050000Y-13150000D02*
X3250000Y-13150000D01*
X5250000Y-12350000D02*
X5450000Y-12350000D01*
X5250000Y-13150000D02*
X5450000Y-13150000D01*
X5450000Y-12350000D02*
X5450000Y-13150000D01*
%TO.C,R9*%
X17050000Y-8600000D02*
X17250000Y-8600000D01*
X17050000Y-9400000D02*
X17050000Y-8600000D01*
X17050000Y-9400000D02*
X17250000Y-9400000D01*
X19250000Y-8600000D02*
X19450000Y-8600000D01*
X19250000Y-9400000D02*
X19450000Y-9400000D01*
X19450000Y-8600000D02*
X19450000Y-9400000D01*
%TO.C,R6*%
X16150000Y-12050000D02*
X16150000Y-12250000D01*
X15350000Y-12050000D02*
X16150000Y-12050000D01*
X15350000Y-12050000D02*
X15350000Y-12250000D01*
X16150000Y-14250000D02*
X16150000Y-14450000D01*
X15350000Y-14250000D02*
X15350000Y-14450000D01*
X16150000Y-14450000D02*
X15350000Y-14450000D01*
%TO.C,U2*%
X46270000Y-12655000D02*
X46270000Y-11905000D01*
X46270000Y-11905000D02*
X43570000Y-11905000D01*
X46270000Y-8095000D02*
X46270000Y-7345000D01*
X46270000Y-7345000D02*
X43570000Y-7345000D01*
X43570000Y-12250000D02*
X42570000Y-13250000D01*
X43570000Y-8095000D02*
X46270000Y-8095000D01*
X43570000Y-6750000D02*
X43570000Y-12250000D01*
X43165000Y-12655000D02*
X46270000Y-12655000D01*
X42570000Y-13250000D02*
X37350000Y-13250000D01*
X37350000Y-13250000D02*
X37350000Y-6750000D01*
X37350000Y-12700000D02*
X36350000Y-12700000D01*
X37350000Y-6750000D02*
X43570000Y-6750000D01*
X36350000Y-12700000D02*
X36350000Y-7300000D01*
X36350000Y-7300000D02*
X37350000Y-7300000D01*
%TO.C,D3*%
X52950000Y-11400000D02*
X52950000Y-12600000D01*
X52950000Y-11400000D02*
X53250000Y-11400000D01*
X52950000Y-11600000D02*
X53250000Y-11400000D01*
X52950000Y-12400000D02*
X53250000Y-12600000D01*
X52950000Y-12600000D02*
X53250000Y-12600000D01*
X56250000Y-11400000D02*
X56550000Y-11400000D01*
X56550000Y-11400000D02*
X56550000Y-12600000D01*
X56550000Y-12600000D02*
X56250000Y-12600000D01*
%TO.C,C7*%
X24750000Y-14350000D02*
X25750000Y-14350000D01*
X24750000Y-15150000D02*
X25750000Y-15150000D01*
%TO.C,R11*%
X31150000Y-10550000D02*
X31150000Y-10750000D01*
X30350000Y-10550000D02*
X31150000Y-10550000D01*
X30350000Y-10550000D02*
X30350000Y-10750000D01*
X31150000Y-12750000D02*
X31150000Y-12950000D01*
X30350000Y-12750000D02*
X30350000Y-12950000D01*
X31150000Y-12950000D02*
X30350000Y-12950000D01*
%TO.C,C3*%
X25750000Y-5650000D02*
X24750000Y-5650000D01*
X25750000Y-4850000D02*
X24750000Y-4850000D01*
D14*
%TO.C,D1*%
X51450000Y-6790000D02*
X51450000Y-9710000D01*
X51450000Y-9710000D02*
X56050000Y-9710000D01*
D15*
X51750000Y-6950000D02*
X51750000Y-9550000D01*
D14*
X56050000Y-6790000D02*
X51450000Y-6790000D01*
X56050000Y-9710000D02*
X56050000Y-6790000D01*
D10*
%TO.C,C4*%
X49300000Y-8900000D02*
X49300000Y-12100000D01*
X47700000Y-8900000D02*
X49300000Y-8900000D01*
X49300000Y-12100000D02*
X47700000Y-12100000D01*
X47700000Y-12100000D02*
X47700000Y-8900000D01*
%TD*%
M02*
